<?xml version="1.0" encoding="UTF-8"?>
<svg width="23px" height="20px" viewBox="0 0 23 20" version="1.1" xmlns="http://www.w3.org/2000/svg" xmlns:xlink="http://www.w3.org/1999/xlink">
    <!-- Generator: Sketch 51.1 (57501) - http://www.bohemiancoding.com/sketch -->
    <title>Group 9</title>
    <desc>Created with Sketch.</desc>
    <defs>
        <polygon id="path-1" points="0 0.335612903 18.4451613 0.335612903 18.4451613 16.1290323 0 16.1290323"></polygon>
    </defs>
    <g id="Wireframe" stroke="none" stroke-width="1" fill="none" fill-rule="evenodd">
        <g id="User-Platform-[Expand]" transform="translate(-596.000000, -367.000000)">
            <g id="Group-32" transform="translate(120.000000, 329.000000)">
                <g id="Group-31" transform="translate(20.000000, 36.000000)">
                    <g id="Group-27" transform="translate(456.000000, 0.000000)">
                        <g id="Group-12">
                            <g id="Group-9" transform="translate(0.000000, 2.000000)">
                                <g id="Group-8">
                                    <path d="M20.9034839,12.4193548 C20.9428387,12.3129032 20.9705806,12.2025806 20.9873548,12.0903226 L20.9873548,2.14193548 C20.9873548,1.39354839 20.5873548,1.30322581 19.9873548,1.30967742 L6.17445161,1.30967742 C5.4196129,1.30967742 5.16154839,1.56129032 5.16735484,2.30967742 C5.1996129,5.46451613 5.16735484,8.61290323 5.16735484,11.7677419 C5.16735484,11.9419355 5.20670968,12.116129 5.23896774,12.4129032 L5.99380645,11.5677419 L10.1357419,6.56129032 C10.864129,5.69032258 11.284129,5.68387097 12.0712258,6.52903226 C12.6325161,7.12903226 13.1873548,7.73548387 13.748,8.34193548 C14.484129,9.13548387 14.6454194,9.14193548 15.5034839,8.42580645 C16.3615484,7.70967742 16.4899355,7.67741935 17.3099355,8.5483871 L20.9034839,12.4193548 Z M13.168,-3.55271368e-15 L20.8325161,-3.55271368e-15 C21.9228387,-3.55271368e-15 22.3221935,0.393548387 22.3221935,1.47741935 L22.3221935,14.3096774 C22.3221935,15.4 21.9292903,15.7935484 20.8383226,15.7935484 L5.34864516,15.7935484 C4.25767742,15.7935484 3.86477419,15.4 3.86477419,14.3096774 L3.86477419,1.48387097 C3.86477419,0.393548387 4.25122581,-3.55271368e-15 5.34219355,-3.55271368e-15 L13.168,-3.55271368e-15 Z" id="Fill-1" fill="#FFFFFF"></path>
                                    <path d="M17.6707097,6.61290323 C16.5810323,6.59870968 15.7087742,5.70322581 15.7223226,4.61290323 C15.7371613,3.52258065 16.6326452,2.65032258 17.7223226,2.66516129 C18.8055484,2.67870968 19.6739355,3.56193548 19.6713548,4.64516129 C19.6565161,5.73870968 18.7642581,6.61677419 17.6707097,6.61290323" id="Fill-3" fill="#FFFFFF"></path>
                                    <g id="Group-7" transform="translate(0.000000, 3.541935)">
                                        <mask id="mask-2" fill="white">
                                            <use xlink:href="#path-1"></use>
                                        </mask>
                                        <g id="Clip-6"></g>
                                        <path d="M3.41290323,14.1936774 C2.59290323,14.1936774 1.92903226,13.5291613 1.92903226,12.7098065 L1.92903226,0.335612903 L1.47741935,0.335612903 C0.661290323,0.335612903 5.08219768e-21,0.996903226 5.08219768e-21,1.81303226 L5.08219768e-21,13.9614194 C-0.00387096774,15.1549677 0.961290323,16.1252903 2.15483871,16.1291613 L2.16774194,16.1291613 L16.9612903,16.1291613 C17.7812903,16.1291613 18.4451613,15.4646452 18.4451613,14.6452903 L18.4451613,14.1936774 L3.41290323,14.1936774 Z" id="Fill-5" fill="#FFFFFF" mask="url(#mask-2)"></path>
                                    </g>
                                </g>
                            </g>
                        </g>
                    </g>
                </g>
            </g>
        </g>
    </g>
</svg>