<?xml version="1.0" encoding="UTF-8"?>
<svg width="19px" height="20px" viewBox="0 0 19 20" version="1.1" xmlns="http://www.w3.org/2000/svg" xmlns:xlink="http://www.w3.org/1999/xlink">
    <!-- Generator: Sketch 51.1 (57501) - http://www.bohemiancoding.com/sketch -->
    <title>Group 28</title>
    <desc>Created with Sketch.</desc>
    <defs>
        <polygon id="path-1" points="8.35884643e-05 0.3385 13.0331466 0.3385 13.0331466 13.3333333 8.35884643e-05 13.3333333"></polygon>
        <polygon id="path-3" points="0.0835836629 0.42614959 18.4027778 0.42614959 18.4027778 18.7182045 0.0835836629 18.7182045"></polygon>
    </defs>
    <g id="Wireframe" stroke="none" stroke-width="1" fill="none" fill-rule="evenodd">
        <g id="User-Platform-[Expand]" transform="translate(-140.000000, -545.000000)">
            <g id="Group-32" transform="translate(120.000000, 329.000000)">
                <g id="Group-31" transform="translate(20.000000, 36.000000)">
                    <g id="Group-30" transform="translate(0.000000, 178.000000)">
                        <g id="Group-28" transform="translate(0.000000, 2.000000)">
                            <g id="Group-7">
                                <g id="Group-3" transform="translate(0.000000, 6.240500)">
                                    <mask id="mask-2" fill="white">
                                        <use xlink:href="#path-1"></use>
                                    </mask>
                                    <g id="Clip-2"></g>
                                    <path d="M1.81305556,12.1829444 C1.45416667,12.1890556 1.1575,11.9029444 1.15194444,11.5440556 L1.15194444,11.5329444 C1.15194444,11.1712778 1.44527778,10.8773889 1.80694444,10.8773889 C2.16972222,10.8773889 2.46305556,11.1712778 2.46305556,11.5329444 C2.46583333,11.8890556 2.17972222,12.1796111 1.82416667,12.1829444 L1.81305556,12.1829444 Z M8.84583333,6.18294444 C9.03472222,5.94794444 9.32972222,5.82461111 9.62916667,5.85516667 L10.2347222,5.91627778 C10.3291667,5.92183333 10.4241667,5.92183333 10.5186111,5.91627778 C11.6847222,5.74127778 12.6369444,4.8935 12.9463889,3.75516667 C13.0319444,3.4635 13.0547222,3.15627778 13.0125,2.85516667 C13.0063889,2.73572222 12.9047222,2.64405556 12.7852778,2.65016667 C12.7275,2.65294444 12.6736111,2.67905556 12.6347222,2.72183333 L12.5352778,2.81072222 C12.2013889,3.16072222 11.8630556,3.49961111 11.5291667,3.85516667 C11.2591667,4.16905556 10.7852778,4.20405556 10.4719444,3.9335 C10.4530556,3.91794444 10.4358333,3.90072222 10.4180556,3.88294444 C10.1019444,3.57738889 9.79583333,3.27183333 9.48527778,2.95516667 C9.17805556,2.67238889 9.15916667,2.19461111 9.44138889,1.88738889 C9.45527778,1.87238889 9.46972222,1.85794444 9.48527778,1.84405556 C9.8625,1.48294444 10.2291667,1.12183333 10.5963889,0.732944444 C10.6575,0.671833333 10.7130556,0.605166667 10.6680556,0.510722222 C10.6330556,0.4085 10.5375,0.339611111 10.4297222,0.3385 C10.1613889,0.3435 9.89472222,0.366277778 9.62916667,0.405166667 C8.9425,0.570722222 8.34472222,0.991833333 7.9575,1.58294444 C7.52638889,2.14572222 7.35361111,2.8635 7.47916667,3.56072222 C7.56305556,3.91183333 7.44027778,4.27961111 7.16305556,4.51016667 L4.8125,6.58294444 C3.39638889,7.82738889 1.97416667,9.06627778 0.563055556,10.3162778 C0.108611111,10.6990556 -0.0930555556,11.3040556 0.0408333333,11.8829444 C0.124166667,12.2490556 0.318055556,12.5807222 0.596388889,12.8329444 C1.24027778,13.4907222 2.29527778,13.5012778 2.95305556,12.8573889 C2.97972222,12.8312778 3.00527778,12.8046111 3.02916667,12.7773889 L4.66305556,10.9107222 L6.92972222,8.33294444 L8.84583333,6.18294444 Z" id="Fill-1" fill="#FFFFFF" mask="url(#mask-2)"></path>
                                </g>
                                <g id="Group-6" transform="translate(0.555556, 0.129389)">
                                    <mask id="mask-4" fill="white">
                                        <use xlink:href="#path-3"></use>
                                    </mask>
                                    <g id="Clip-5"></g>
                                    <path d="M18.4016111,8.24955556 C18.4116111,8.17122222 18.3571667,8.09955556 18.2793889,8.08844444 L16.5627222,7.53288889 C16.4877222,7.51511111 16.4277222,7.45788889 16.4071667,7.38288889 C16.2293889,6.93844444 16.0443889,6.494 15.8516111,6.04955556 C15.8160556,5.98566667 15.8160556,5.90788889 15.8516111,5.844 L16.7071667,4.194 C16.7532778,4.149 16.7538333,4.07511111 16.7088333,4.029 L16.7071667,4.02733333 L14.7571667,2.13844444 C14.7138333,2.09622222 14.6449444,2.09622222 14.6016111,2.13844444 L12.9349444,2.97733333 C12.8732778,3.01288889 12.7966111,3.01288889 12.7349444,2.97733333 C12.2905,2.78844444 11.8460556,2.60511111 11.3966111,2.42177778 C11.3288333,2.39844444 11.2749444,2.34511111 11.2516111,2.27733333 C11.0682778,1.72177778 10.8793889,1.12177778 10.6960556,0.549555556 C10.6843889,0.471777778 10.6127222,0.417333333 10.5349444,0.427333333 L7.90716667,0.427333333 C7.82938889,0.417333333 7.75772222,0.471777778 7.74605556,0.549555556 C7.56272222,1.10511111 7.37383333,1.70511111 7.1905,2.28844444 C7.17327778,2.35066667 7.12494444,2.399 7.06272222,2.41622222 C6.61272222,2.594 6.16272222,2.78288889 5.71827778,2.97177778 C5.65494444,3.00733333 5.57661111,3.00733333 5.51272222,2.97177778 L3.88494444,2.13844444 C3.82827778,2.09733333 3.74883333,2.10955556 3.70716667,2.16622222 L1.81827778,4.06066667 C1.76216667,4.09733333 1.74605556,4.17344444 1.78327778,4.23011111 C1.78383333,4.23122222 1.78438889,4.23177778 1.78494444,4.23288889 L2.62438889,5.87177778 C2.65661111,5.92844444 2.65661111,5.99844444 2.62438889,6.05511111 C2.38994444,6.48566667 2.20383333,6.94011111 2.06883333,7.41066667 C2.05272222,7.47788889 2.00105556,7.53122222 1.93494444,7.54955556 L0.207166667,8.10511111 C0.118277778,8.10511111 0.0849444444,8.16622222 0.0849444444,8.26622222 L0.0849444444,10.9273333 C0.0749444444,10.9973333 0.121055556,11.0628889 0.1905,11.0773333 L1.92994444,11.6328889 C1.99938889,11.6501111 2.05383333,11.7028889 2.07383333,11.7717778 C2.22383333,12.1662222 2.36883333,12.5606667 2.54605556,12.944 C2.62938889,13.1273333 2.70161111,13.2773333 2.54605556,13.4551111 L2.54605556,13.5051111 L4.54661111,11.7495556 C4.54661111,11.7106667 4.51827778,11.6828889 4.50716667,11.6495556 C4.10272222,10.7301111 3.97883333,9.71122222 4.15216667,8.72177778 C4.67772222,5.92066667 7.37494444,4.07566667 10.1766111,4.60177778 C12.7443889,5.084 14.5471667,7.409 14.3738333,10.0162222 C14.1177222,12.8551111 11.6088333,14.949 8.76994444,14.6934444 C8.28605556,14.6495556 7.8105,14.5373333 7.35716667,14.3606667 C7.27994444,14.3173333 7.18272222,14.3417778 7.13494444,14.4162222 C6.85161111,14.7495556 6.57938889,15.0717778 6.27383333,15.3995556 L5.63494444,16.1328889 C5.67438889,16.1595556 5.71494444,16.184 5.75716667,16.2051111 C6.1905,16.3828889 6.61827778,16.5606667 7.05161111,16.7273333 C7.11716667,16.749 7.16883333,16.8006667 7.1905,16.8662222 C7.37383333,17.4217778 7.56272222,18.0162222 7.74605556,18.594 C7.75772222,18.6728889 7.8305,18.7278889 7.90938889,18.7167778 C7.9105,18.7167778 7.91161111,18.7167778 7.91272222,18.7162222 L10.4960556,18.7162222 L10.6849444,18.7162222 L10.7349444,18.5606667 L11.2905,16.8662222 C11.3077222,16.8012222 11.3588333,16.7506667 11.4238333,16.7328889 C11.8738333,16.5495556 12.3182778,16.3717778 12.7571667,16.1773333 C12.8277222,16.1351111 12.9149444,16.1351111 12.9849444,16.1773333 L14.6016111,17.0051111 C14.6488333,17.049 14.7216111,17.049 14.7682778,17.0051111 L16.6682778,15.0995556 C16.7349444,15.0384444 16.7293889,14.9995556 16.6682778,14.9217778 C16.3905,14.3662222 16.1127222,13.8551111 15.8460556,13.3162222 C15.8043889,13.244 15.8043889,13.1551111 15.8460556,13.0828889 C16.0349444,12.644 16.2182778,12.1995556 16.4016111,11.7606667 C16.4188333,11.689 16.4743889,11.6334444 16.5460556,11.6162222 L18.2849444,11.0606667 C18.3543889,11.0467778 18.4010556,10.9806667 18.3905,10.9106667 C18.3738333,9.99955556 18.3738333,9.11622222 18.4016111,8.24955556" id="Fill-4" fill="#FFFFFF" mask="url(#mask-4)"></path>
                                </g>
                            </g>
                        </g>
                    </g>
                </g>
            </g>
        </g>
    </g>
</svg>