<?xml version="1.0" encoding="UTF-8"?>
<svg width="37px" height="20px" viewBox="0 0 37 20" version="1.1" xmlns="http://www.w3.org/2000/svg" xmlns:xlink="http://www.w3.org/1999/xlink">
    <!-- Generator: Sketch 51.1 (57501) - http://www.bohemiancoding.com/sketch -->
    <title>Group 13 Copy</title>
    <desc>Created with Sketch.</desc>
    <defs>
        <polygon id="path-1" points="0.552571429 0.472380952 9.21904762 0.472380952 9.21904762 19.0416107 0.552571429 19.0416107"></polygon>
        <polygon id="path-3" points="0 0.857333333 12.0854286 0.857333333 12.0854286 15.324 0 15.324"></polygon>
        <polygon id="path-5" points="0 19.5278095 36.8380952 19.5278095 36.8380952 0.952571429 0 0.952571429"></polygon>
    </defs>
    <g id="Wireframe" stroke="none" stroke-width="1" fill="none" fill-rule="evenodd">
        <g id="User-Platform-[Expand]" transform="translate(-369.000000, -367.000000)">
            <g id="Group-32" transform="translate(120.000000, 329.000000)">
                <g id="Group-31" transform="translate(20.000000, 36.000000)">
                    <g id="Group-20" transform="translate(229.000000, 0.000000)">
                        <g id="Group-17">
                            <g id="Group-13-Copy" transform="translate(0.000000, 2.000000)">
                                <g id="Group-11">
                                    <g id="Group-3" transform="translate(27.619048, 0.480190)">
                                        <mask id="mask-2" fill="white">
                                            <use xlink:href="#path-1"></use>
                                        </mask>
                                        <g id="Clip-2"></g>
                                        <path d="M9.124,17.048 L8.69542857,17.048 C8.32209524,17.0718095 7.9487619,17.0499048 7.58114286,16.9813333 C7.24209524,16.8651429 6.92114286,16.7013333 6.6287619,16.495619 C6.31447619,16.2022857 6.05257143,15.8584762 5.85638095,15.4765714 L5.85638095,11.3137143 L6.99066667,11.3137143 L6.99066667,9.35180952 L5.85638095,9.35180952 L5.85638095,4.09466667 C6.05638095,3.68038095 6.33447619,3.30895238 6.67638095,3.00038095 C6.95542857,2.79657143 7.2592381,2.62990476 7.58114286,2.50419048 C7.94971429,2.44514286 8.32304762,2.42514286 8.69542857,2.44704762 L9.124,2.44704762 L9.20971429,0.485142857 L8.78971429,0.485142857 C8.18685714,0.448 7.58019048,0.500380952 6.99066667,0.63847619 C6.47638095,0.810857143 5.99066667,1.06133333 5.55257143,1.38133333 C5.30114286,1.568 5.07447619,1.78609524 4.87638095,2.028 C4.69161905,1.79561905 4.484,1.58228571 4.25733333,1.39085714 C3.81447619,1.0527619 3.31447619,0.79752381 2.78114286,0.63847619 C2.19257143,0.496571429 1.58495238,0.445142857 0.981142857,0.485142857 L0.552571429,0.485142857 L0.647809524,2.44704762 L1.06685714,2.44704762 C1.44304762,2.42228571 1.82019048,2.44514286 2.19066667,2.51466667 C2.4992381,2.60419048 2.79066667,2.74990476 3.04780952,2.94228571 C3.39638095,3.28609524 3.68019048,3.68895238 3.88590476,4.1327619 L3.88590476,9.35180952 L2.77161905,9.35180952 L2.77161905,11.3137143 L3.88590476,11.3137143 L3.88590476,15.3908571 C3.68019048,15.8346667 3.39638095,16.2375238 3.04780952,16.5813333 C2.78590476,16.775619 2.49257143,16.9232381 2.18114286,17.0194286 C1.81542857,17.0784762 1.44495238,17.0984762 1.07638095,17.075619 L0.647809524,17.075619 L0.552571429,19.0384762 L0.981142857,19.0384762 L1.38114286,19.0384762 C1.85257143,19.0537143 2.32495238,18.9994286 2.78114286,18.8765714 C3.31447619,18.7165714 3.81447619,18.4613333 4.25733333,18.1241905 C4.484,17.9327619 4.69161905,17.7184762 4.87638095,17.4860952 C5.07161905,17.728 5.29828571,17.9422857 5.55257143,18.1241905 C5.98685714,18.4470476 6.4687619,18.700381 6.98114286,18.8765714 C7.56971429,19.0165714 8.17638095,19.068 8.78114286,19.0289524 L9.2192381,19.0289524 L9.124,17.048 Z" id="Fill-1" fill="#FFFFFF" mask="url(#mask-2)"></path>
                                    </g>
                                    <g id="Group-6" transform="translate(0.000000, 0.480190)">
                                        <mask id="mask-4" fill="white">
                                            <use xlink:href="#path-3"></use>
                                        </mask>
                                        <g id="Clip-5"></g>
                                        <path d="M4.06638095,10.1525714 L8.0187619,10.1525714 L6.55209524,3.27638095 L5.53304762,3.27638095 L4.06638095,10.1525714 Z M3.25685714,0.857333333 L8.82828571,0.857333333 L12.0854286,15.324 L9.15209524,15.324 L8.58066667,12.7049524 L3.514,12.7049524 L2.94257143,15.324 L-0.000285714286,15.324 L3.25685714,0.857333333 Z" id="Fill-4" fill="#FFFFFF" mask="url(#mask-4)"></path>
                                    </g>
                                    <path d="M16.952381,9.75657143 L16.952381,13.2899048 L19.6380952,13.2899048 C20.847619,13.2899048 21.5428571,12.928 21.5428571,11.4994286 C21.5428571,10.3089524 20.847619,9.75657143 19.6380952,9.75657143 L16.952381,9.75657143 Z M16.952381,3.84228571 L16.952381,7.28990476 L19.5714286,7.28990476 C20.7238095,7.28990476 21.2285714,6.69942857 21.2285714,5.54704762 C21.2285714,4.39466667 20.6571429,3.84228571 19.552381,3.84228571 L16.952381,3.84228571 Z M19.6952381,1.33752381 C22.6095238,1.33752381 24.2095238,2.40419048 24.2095238,5.14704762 C24.3714286,6.43657143 23.74,7.69561905 22.6095238,8.33752381 C23.847619,8.87085714 24.5142857,9.76609524 24.5142857,11.6327619 C24.5142857,14.4899048 22.7047619,15.7851429 19.8095238,15.7851429 L14.0952381,15.7851429 L14.0952381,1.33752381 L19.6952381,1.33752381 Z" id="Fill-7" fill="#FFFFFF"></path>
                                    <mask id="mask-6" fill="white">
                                        <use xlink:href="#path-5"></use>
                                    </mask>
                                    <g id="Clip-10"></g>
                                    <polygon id="Fill-9" fill="#FFFFFF" mask="url(#mask-6)" points="0.561904762 19.5278095 23.9238095 19.5278095 23.9238095 18.5754286 0.561904762 18.5754286"></polygon>
                                </g>
                            </g>
                        </g>
                    </g>
                </g>
            </g>
        </g>
    </g>
</svg>