<?xml version="1.0" encoding="UTF-8"?>
<svg width="17px" height="20px" viewBox="0 0 17 20" version="1.1" xmlns="http://www.w3.org/2000/svg" xmlns:xlink="http://www.w3.org/1999/xlink">
    <!-- Generator: Sketch 51.1 (57501) - http://www.bohemiancoding.com/sketch -->
    <title>Group 10</title>
    <desc>Created with Sketch.</desc>
    <defs>
        <polygon id="path-1" points="0.385571178 0.0851484907 13.2337143 0.0851484907 13.2337143 13.7142857 0.385571178 13.7142857"></polygon>
        <polygon id="path-3" points="0 19.6793714 16.6622857 19.6793714 16.6622857 -5.71428571e-05 0 -5.71428571e-05"></polygon>
    </defs>
    <g id="Wireframe" stroke="none" stroke-width="1" fill="none" fill-rule="evenodd">
        <g id="User-Platform-[Expand]" transform="translate(-390.000000, -545.000000)">
            <g id="Group-32" transform="translate(120.000000, 329.000000)">
                <g id="Group-31" transform="translate(20.000000, 36.000000)">
                    <g id="Group-29" transform="translate(250.000000, 178.000000)">
                        <g id="Group-10" transform="translate(0.000000, 2.000000)">
                            <g id="Group-3" transform="translate(3.428571, 5.965086)">
                                <mask id="mask-2" fill="white">
                                    <use xlink:href="#path-1"></use>
                                </mask>
                                <g id="Clip-2"></g>
                                <path d="M6.48497143,1.58857143 C3.96097143,1.53828571 1.87411429,3.54342857 1.82325714,6.068 C1.77297143,8.592 3.77811429,10.6788571 6.30268571,10.7297143 C8.82668571,10.78 10.9141143,8.77485714 10.9644,6.25028571 C10.9649714,6.22 10.9655429,6.19028571 10.9655429,6.16 C10.9872571,3.66171429 8.98325714,1.61657143 6.48497143,1.58857143 M10.8564,10.2857143 L13.2341143,12.5714286 L12.0912571,13.7142857 C11.6506857,13.2457143 11.1992571,12.7542857 10.7421143,12.2742857 C10.4226857,11.9428571 10.1369714,11.4514286 9.75411429,11.3485714 C9.37125714,11.2457143 8.97125714,11.6285714 8.56554286,11.7771429 C5.44611429,12.9582857 1.95868571,11.3874286 0.777542857,8.268 C0.0958285714,6.46971429 0.311828571,4.45371429 1.35925714,2.84 L1.66782857,2.36571429 L0.394114286,2.36571429 L0.394114286,0.834285714 L2.42268571,0.834285714 C3.04325714,0.856 3.66097143,0.742857143 4.23411429,0.502857143 C7.3364,-0.713142857 10.8375429,0.816 12.0541143,3.91885714 C12.8478286,5.94342857 12.4906857,8.23828571 11.1192571,9.92571429 C11.0341143,10.0285714 10.9592571,10.16 10.8564,10.2857143" id="Fill-1" fill="#FFFFFF" mask="url(#mask-2)"></path>
                            </g>
                            <path d="M5.47382857,17.3879429 C4.03954286,17.3879429 2.67382857,17.4279429 1.31382857,17.3879429 C0.513828571,17.3068 -0.0684571429,16.5930857 0.0109714286,15.7936571 L0.0109714286,9.50794286 L0.0109714286,1.72508571 C-0.0896,0.8788 0.5144,0.111371429 1.36068571,0.0108 C1.48182857,-0.00348571429 1.60468571,-0.00348571429 1.72525714,0.0108 L12.6566857,0.0108 C13.5132571,-0.0789142857 14.2812571,0.5428 14.3709714,1.39937143 C14.3824,1.50737143 14.3824,1.61651429 14.3709714,1.72508571 L14.3709714,6.95365714 C13.8624,6.62794286 13.3995429,6.34794286 12.9652571,6.03365714 C12.8801143,5.9188 12.8418286,5.77594286 12.8566857,5.63365714 L12.8566857,2.10794286 L12.8566857,1.53651429 L1.55382857,1.53651429 L1.55382857,15.8850857 L3.53668571,15.8850857 C3.92182857,15.8228 4.3064,16.0045143 4.5024,16.3422286 C4.7944,16.7193714 5.11897143,17.0690857 5.47382857,17.3879429" id="Fill-4" fill="#FFFFFF"></path>
                            <mask id="mask-4" fill="white">
                                <use xlink:href="#path-3"></use>
                            </mask>
                            <g id="Clip-7"></g>
                            <polygon id="Fill-6" fill="#FFFFFF" mask="url(#mask-4)" points="3.81085714 5.26794286 10.5765714 5.26794286 10.5765714 3.80508571 3.81085714 3.80508571"></polygon>
                            <path d="M6.14234286,12.8678286 L12.0794857,12.8678286 L12.0794857,15.0792571 C11.9743429,15.1015429 11.8674857,15.1152571 11.7594857,15.1192571 L7.87948571,15.1192571 C7.74748571,15.1346857 7.6132,15.1089714 7.49662857,15.0455429 C6.80291429,14.5009714 6.32291429,13.7306857 6.14234286,12.8678286" id="Fill-8" fill="#FFFFFF" mask="url(#mask-4)"></path>
                            <path d="M6.15965714,11.3081143 C6.2968,10.4521143 6.76194286,9.68354286 7.4568,9.16525714 C7.52765714,9.1104 7.61337143,9.08068571 7.70251429,9.07954286 L12.0910857,9.07954286 L12.0910857,11.3138286 L6.15965714,11.3081143 Z" id="Fill-9" fill="#FFFFFF" mask="url(#mask-4)"></path>
                        </g>
                    </g>
                </g>
            </g>
        </g>
    </g>
</svg>