<?xml version="1.0" encoding="UTF-8"?>
<svg width="17px" height="20px" viewBox="0 0 17 20" version="1.1" xmlns="http://www.w3.org/2000/svg" xmlns:xlink="http://www.w3.org/1999/xlink">
    <!-- Generator: Sketch 51.1 (57501) - http://www.bohemiancoding.com/sketch -->
    <title>Group 26</title>
    <desc>Created with Sketch.</desc>
    <defs>
        <polygon id="path-1" points="0.0985968564 0.1155 2.52866098 0.1155 2.52866098 2.57506072 0.0985968564 2.57506072"></polygon>
        <polygon id="path-3" points="0.41515 0.26015 9.47465 0.26015 9.47465 1 0.41515 1"></polygon>
    </defs>
    <g id="Wireframe" stroke="none" stroke-width="1" fill="none" fill-rule="evenodd">
        <g id="User-Platform-[Expand]" transform="translate(-142.000000, -367.000000)">
            <g id="Group-32" transform="translate(120.000000, 329.000000)">
                <g id="Group-31" transform="translate(20.000000, 36.000000)">
                    <g id="Group-18-Copy" transform="translate(2.000000, 0.000000)">
                        <g id="Group-26" transform="translate(0.000000, 2.000000)">
                            <g id="Group-25">
                                <path d="M4.82,5.63445 C2.5695,5.63445 0.745,7.45895 0.745,9.70945 L0.745,9.72445 L0.745,13.33995 C0.745,15.59095 2.5685,17.41695 4.82,17.41945 L12.07,17.41945 C14.3215,17.41695 16.145,15.59095 16.145,13.33995 L16.145,9.72445 C16.145,7.47395 14.3205,5.64945 12.07,5.64945 L4.82,5.63445 Z M12.07,18.13445 L4.82,18.13445 C2.1595,18.13195 0.0025,15.97545 0,13.31445 L0,9.72445 C0.0025,7.06395 2.1595,4.90745 4.82,4.90445 L12.07,4.90445 C14.7305,4.90745 16.8875,7.06395 16.89,9.72445 L16.89,13.33995 C16.8735,15.99045 14.7215,18.13195 12.07,18.13445 Z" id="Fill-1" fill="#FFFFFF"></path>
                                <path d="M5.8,8.56975 C4.5075,8.56125 3.4535,9.60175 3.445,10.89425 L3.445,10.90475 L3.445,12.11475 C3.448,13.40275 4.4915,14.44675 5.78,14.44975 L9.82,14.44975 C9.9995,14.44925 10.1535,14.57775 10.1855,14.75425 C10.2335,15.30075 10.5855,15.77225 11.095,15.97475 C11.0375,15.56625 11.0375,15.15275 11.095,14.74475 C11.116,14.57925 11.245,14.44825 11.41,14.42475 C12.556,14.25425 13.4055,13.27275 13.41,12.11475 L13.41,10.90475 C13.4075,9.61625 12.3635,8.57225 11.075,8.56975 L5.8,8.56975 Z M11.505,16.79425 C10.562,16.77575 9.755,16.11475 9.55,15.19475 L5.8,15.19475 C4.101,15.19175 2.725,13.81325 2.725,12.11475 L2.725,10.90475 C2.7275,9.20725 4.1025,7.83225 5.8,7.82975 L11.09,7.82975 C12.7875,7.83225 14.1625,9.20725 14.165,10.90475 L14.165,12.11475 C14.164,13.53875 13.189,14.77825 11.805,15.11475 C11.7565,15.50175 11.805,15.89525 11.945,16.25975 C12,16.36825 12,16.49625 11.945,16.60425 C11.8835,16.70625 11.7785,16.77475 11.66,16.78925 L11.505,16.79425 Z" id="Fill-3" fill="#FFFFFF"></path>
                                <path d="M5.4899,11.1547 C5.2964,11.1517 5.1379,11.3062 5.1349,11.4992 L5.1349,11.5042 C5.1349,11.7007 5.2939,11.8592 5.4899,11.8592 C5.6834,11.8597 5.8399,11.7032 5.8399,11.5097 L5.8399,11.5042 C5.8399,11.3112 5.6834,11.1547 5.4899,11.1547 M5.4899,12.5997 C4.8854,12.5997 4.3954,12.1092 4.3954,11.5042 C4.3954,10.8997 4.8854,10.4097 5.4899,10.4097 C6.0949,10.4097 6.5849,10.8997 6.5849,11.5042 C6.5849,12.1092 6.0949,12.5997 5.4899,12.5997" id="Fill-5" fill="#FFFFFF"></path>
                                <path d="M8.445,11.1547 C8.2515,11.1517 8.093,11.3062 8.09,11.4992 L8.09,11.5042 C8.0905,11.7007 8.2495,11.8592 8.4455,11.8587 C8.6415,11.8587 8.7995,11.7002 8.8,11.5042 C8.8,11.3112 8.643,11.1547 8.45,11.1547 L8.445,11.1547 Z M8.445,12.5997 C7.84,12.5997 7.35,12.1092 7.35,11.5042 C7.35,10.8997 7.84,10.4097 8.445,10.4097 C9.05,10.4097 9.54,10.8997 9.54,11.5042 C9.54,12.1092 9.05,12.5997 8.445,12.5997 Z" id="Fill-7" fill="#FFFFFF"></path>
                                <path d="M11.4001,11.1547 C11.2066,11.1517 11.0481,11.3062 11.0451,11.4992 L11.0451,11.5042 C11.0446,11.7007 11.2031,11.8597 11.3996,11.8602 C11.5956,11.8602 11.7546,11.7017 11.7551,11.5057 L11.7551,11.5042 C11.7551,11.3112 11.5981,11.1547 11.4051,11.1547 L11.4001,11.1547 Z M11.4001,12.5997 C10.7951,12.5997 10.3051,12.1092 10.3051,11.5042 C10.3051,10.8997 10.7951,10.4097 11.4001,10.4097 C12.0046,10.4097 12.4946,10.8997 12.4946,11.5042 C12.4946,12.1092 12.0046,12.5997 11.4001,12.5997 Z" id="Fill-9" fill="#FFFFFF"></path>
                                <path d="M2.0949,1.3046 C2.0184,1.3031 1.9419,1.3221 1.8754,1.3596 C1.6539,1.4806 1.5714,1.7571 1.6899,1.9796 C1.7394,2.0916 1.8314,2.1796 1.9449,2.2246 C2.1859,2.2971 2.4394,2.1606 2.5119,1.9201 C2.5474,1.8031 2.5339,1.6766 2.4749,1.5696 C2.4069,1.4181 2.2609,1.3156 2.0949,1.3046 M2.0949,2.9596 C1.9784,2.9601 1.8619,2.9431 1.7504,2.9096 C1.4454,2.8186 1.1894,2.6101 1.0404,2.3296 C0.7299,1.7436 0.9534,1.0176 1.5389,0.7076 C2.1249,0.3976 2.8509,0.6206 3.1609,1.2066 C3.4714,1.7921 3.2479,2.5181 2.6624,2.8286 C2.6614,2.8286 2.6609,2.8291 2.6599,2.8296 C2.4849,2.9191 2.2914,2.9636 2.0949,2.9596" id="Fill-11" fill="#FFFFFF"></path>
                                <path d="M3.945,5.60955 C3.809,5.61005 3.6835,5.53505 3.62,5.41455 L2.12,2.66455 C2.023,2.48355 2.0915,2.25855 2.2725,2.16205 C2.4535,2.06555 2.6785,2.13355 2.775,2.31455 L4.275,5.06455 C4.3705,5.24505 4.301,5.46905 4.1205,5.56455 L4.12,5.56455 C4.0665,5.59405 4.006,5.60955 3.945,5.60955" id="Fill-13" fill="#FFFFFF"></path>
                                <g id="Group-17" transform="translate(13.500000, 0.384550)">
                                    <mask id="mask-2" fill="white">
                                        <use xlink:href="#path-1"></use>
                                    </mask>
                                    <g id="Clip-16"></g>
                                    <path d="M1.2951,0.92005 C1.1276,0.91955 0.9731,1.01155 0.8951,1.16005 C0.7506,1.36605 0.8011,1.64955 1.0071,1.79355 C1.1351,1.88355 1.3006,1.90105 1.4451,1.84005 C1.5621,1.80555 1.6606,1.72655 1.7201,1.62005 C1.8386,1.39755 1.7561,1.12105 1.5346,1.00005 C1.4646,0.95005 1.3811,0.92205 1.2951,0.92005 M1.2951,2.57505 C0.6326,2.57305 0.0971,2.03405 0.0986,1.37105 C0.0991,1.17555 0.1476,0.98255 0.2401,0.81005 C0.5191,0.20905 1.2331,-0.05195 1.8341,0.22755 C2.4346,0.50655 2.6961,1.22055 2.4166,1.82155 C2.3966,1.86405 2.3746,1.90505 2.3496,1.94505 C2.2006,2.22555 1.9446,2.43405 1.6396,2.52505 C1.5281,2.55855 1.4116,2.57555 1.2951,2.57505" id="Fill-15" fill="#FFFFFF" mask="url(#mask-2)"></path>
                                </g>
                                <path d="M12.945,5.60955 C12.884,5.60855 12.824,5.59305 12.77,5.56455 C12.591,5.46755 12.524,5.24405 12.62,5.06455 L14.12,2.31455 C14.2165,2.13355 14.4415,2.06555 14.6225,2.16205 C14.8035,2.25855 14.872,2.48355 14.775,2.66455 L13.275,5.41455 C13.209,5.53505 13.082,5.60955 12.945,5.60955" id="Fill-18" fill="#FFFFFF"></path>
                                <path d="M2.0949,9.92475 C1.8909,9.92475 1.7249,9.75875 1.7249,9.55475 C1.7279,7.85625 3.1024,6.48025 4.7999,6.47475 C5.0054,6.49825 5.1529,6.68475 5.1289,6.89025 C5.1089,7.06275 4.9729,7.19975 4.7999,7.21975 C3.5104,7.20825 2.4564,8.24525 2.4449,9.53475 L2.4449,9.55475 C2.4454,9.75125 2.2919,9.91425 2.0949,9.92475" id="Fill-20" fill="#FFFFFF"></path>
                                <g id="Group-24" transform="translate(3.500000, 18.884550)">
                                    <mask id="mask-4" fill="white">
                                        <use xlink:href="#path-3"></use>
                                    </mask>
                                    <g id="Clip-23"></g>
                                    <path d="M9.10515,1.00015 L0.78465,1.00015 C0.58065,0.99965 0.41515,0.83415 0.41515,0.62965 C0.41565,0.42565 0.58065,0.26065 0.78465,0.26015 L9.10515,0.26015 C9.30915,0.26065 9.47465,0.42615 9.47465,0.63065 C9.47415,0.83465 9.30915,0.99965 9.10515,1.00015" id="Fill-22" fill="#FFFFFF" mask="url(#mask-4)"></path>
                                </g>
                            </g>
                        </g>
                    </g>
                </g>
            </g>
        </g>
    </g>
</svg>