<?xml version="1.0" encoding="UTF-8"?>
<svg width="19px" height="20px" viewBox="0 0 19 20" version="1.1" xmlns="http://www.w3.org/2000/svg" xmlns:xlink="http://www.w3.org/1999/xlink">
    <!-- Generator: Sketch 51.1 (57501) - http://www.bohemiancoding.com/sketch -->
    <title>Group 19</title>
    <desc>Created with Sketch.</desc>
    <defs>
        <polygon id="path-1" points="0 19.3939394 18.5818182 19.3939394 18.5818182 0.273939394 0 0.273939394"></polygon>
    </defs>
    <g id="Wireframe" stroke="none" stroke-width="1" fill="none" fill-rule="evenodd">
        <g id="User-Platform-[Expand]" transform="translate(-823.000000, -367.000000)">
            <g id="Group-32" transform="translate(120.000000, 329.000000)">
                <g id="Group-31" transform="translate(20.000000, 36.000000)">
                    <g id="Group-21" transform="translate(683.000000, 0.000000)">
                        <g id="Group-19" transform="translate(0.000000, 2.000000)">
                            <g id="Group-10">
                                <polygon id="Fill-1" fill="#FFFFFF" points="0.096969697 19.7258182 18.5818182 19.7258182 18.5818182 18.1561212 0.096969697 18.1561212"></polygon>
                                <g id="Group-9" transform="translate(0.000000, 0.331879)">
                                    <path d="M16.5210303,6.63030303 C16.1864848,6.63030303 15.9149697,6.35878788 15.9149697,6.02424242 C15.9149697,5.68969697 16.1864848,5.41818182 16.5210303,5.41818182 C16.8561818,5.41757576 17.127697,5.68848485 17.128303,6.0230303 C17.128303,6.03575758 17.128303,6.04848485 17.1270909,6.06060606 C17.107697,6.39333333 16.8234545,6.64727273 16.4907273,6.63030303 L16.5210303,6.63030303 Z M11.6725455,4.90909091 C11.338,4.90909091 11.0664848,4.63757576 11.0664848,4.3030303 C11.0664848,3.96848485 11.338,3.6969697 11.6725455,3.6969697 C12.007697,3.6969697 12.2786061,3.96848485 12.2786061,4.3030303 C12.2786061,4.63757576 12.007697,4.90909091 11.6725455,4.90909091 Z M6.90951515,2.58181818 C6.57436364,2.58181818 6.30345455,2.31030303 6.30345455,1.97575758 C6.30345455,1.64121212 6.57436364,1.36969697 6.90951515,1.36969697 C7.24345455,1.36969697 7.51557576,1.64121212 7.51557576,1.97575758 C7.51557576,2.31030303 7.24345455,2.58181818 6.90951515,2.58181818 Z M2.0610303,4.32121212 C1.72587879,4.32121212 1.4549697,4.04969697 1.4549697,3.71515152 C1.4549697,3.38060606 1.72587879,3.10909091 2.0610303,3.10909091 C2.3949697,3.10909091 2.66709091,3.38060606 2.66709091,3.71515152 C2.66709091,4.04969697 2.3949697,4.32121212 2.0610303,4.32121212 Z M17.388303,4.56969697 C16.7295152,4.16545455 15.8810303,4.24909091 15.3155758,4.77575758 C15.2252727,4.84424242 15.1125455,4.87515152 14.9998182,4.86060606 C14.5392121,4.75151515 14.0907273,4.61818182 13.6361818,4.5030303 C13.4731515,4.48727273 13.3531515,4.34242424 13.3695152,4.17878788 C13.3695152,4.17818182 13.3695152,4.1769697 13.3701212,4.17575758 C13.3392121,3.47393939 12.8628485,2.87090909 12.188303,2.67878788 C11.5355758,2.47757576 10.8264848,2.67454545 10.3701212,3.18181818 C9.80587879,2.81212121 9.2549697,2.45454545 8.7149697,2.07878788 C8.64709091,2.02 8.60406061,1.93757576 8.59375758,1.84848485 C8.52284848,0.91030303 7.70466667,0.207878788 6.76709091,0.279393939 C5.97618182,0.339393939 5.33133333,0.936969697 5.21193939,1.72121212 C5.20345455,1.85393939 5.10587879,1.9630303 4.97557576,1.98787879 C4.5210303,2.12727273 4.06648485,2.27272727 3.618,2.43636364 C3.42709091,2.52 3.20406061,2.48484848 3.04890909,2.34545455 C2.29072727,1.8 1.23375758,1.97272727 0.68830303,2.73090909 C0.143454545,3.48909091 0.316181818,4.54606061 1.07436364,5.09090909 C1.83254545,5.63636364 2.88890909,5.46363636 3.43375758,4.70545455 C3.63133333,4.43030303 3.74224242,4.10242424 3.75193939,3.76363636 C3.73315152,3.62 3.83254545,3.48848485 3.97618182,3.46666667 C4.41254545,3.32727273 4.84830303,3.19393939 5.27860606,3.03636364 C5.40890909,2.96909091 5.56890909,3.01090909 5.64890909,3.13333333 C6.16042424,3.69939394 6.98890909,3.84848485 7.66709091,3.4969697 C7.87618182,3.37333333 8.07860606,3.23757576 8.27315152,3.09090909 C8.80648485,3.44242424 9.358,3.80606061 9.89678788,4.17575758 C9.96042424,4.22848485 9.998,4.30545455 9.99981818,4.38787879 C10.0307273,5.33818182 10.8258788,6.08363636 11.7755758,6.05272727 C12.187697,6.03939394 12.5810303,5.87878788 12.8846667,5.6 C12.9428485,5.54363636 13.0228485,5.51454545 13.1028485,5.52121212 C13.6731515,5.66666667 14.2422424,5.82424242 14.8125455,5.98181818 L14.8125455,6.23030303 C14.9137576,7.14545455 15.7107273,7.8230303 16.6307273,7.77575758 C17.4016364,7.70969697 18.0337576,7.1369697 18.1755758,6.37575758 C18.3234545,5.66787879 18.007697,4.9430303 17.388303,4.56969697 Z" id="Fill-2" fill="#FFFFFF"></path>
                                    <mask id="mask-2" fill="white">
                                        <use xlink:href="#path-1"></use>
                                    </mask>
                                    <g id="Clip-5"></g>
                                    <path d="M1.0969697,15.4969697 L3.07878788,15.4969697 L3.07878788,10.9387879 L1.0969697,10.9387879 L1.0969697,15.4969697 Z M0,16.5757576 L4.16969697,16.5757576 L4.16969697,9.86666667 L0,9.86666667 L0,16.5757576 Z" id="Fill-4" fill="#FFFFFF" mask="url(#mask-2)"></path>
                                    <path d="M15.5084848,15.4969697 L17.4909091,15.4969697 L17.4909091,10.9387879 L15.5084848,10.9387879 L15.5084848,15.4969697 Z M14.4121212,16.5757576 L18.5818182,16.5757576 L18.5818182,9.86666667 L14.4121212,9.86666667 L14.4121212,16.5757576 Z" id="Fill-6" fill="#FFFFFF" mask="url(#mask-2)"></path>
                                    <path d="M10.7084848,15.4969697 L12.6909091,15.4969697 L12.6909091,8.96909091 L10.7084848,8.96909091 L10.7084848,15.4969697 Z M9.61818182,16.5818182 L13.769697,16.5818182 L13.769697,7.88424242 L9.61818182,7.88424242 L9.61818182,16.5818182 Z" id="Fill-7" fill="#FFFFFF" mask="url(#mask-2)"></path>
                                    <path d="M5.9030303,15.4969697 L7.88484848,15.4969697 L7.88484848,6.55757576 L5.9030303,6.55757576 L5.9030303,15.4969697 Z M4.81212121,16.5818182 L8.96363636,16.5818182 L8.96363636,5.45454545 L4.81212121,5.45454545 L4.81212121,16.5818182 Z" id="Fill-8" fill="#FFFFFF" mask="url(#mask-2)"></path>
                                </g>
                            </g>
                        </g>
                    </g>
                </g>
            </g>
        </g>
    </g>
</svg>