<?xml version="1.0" encoding="UTF-8"?>
<svg width="30px" height="30px" viewBox="0 0 30 30" version="1.1" xmlns="http://www.w3.org/2000/svg" xmlns:xlink="http://www.w3.org/1999/xlink">
    <!-- Generator: Sketch 51.1 (57501) - http://www.bohemiancoding.com/sketch -->
    <title>Group 22</title>
    <desc>Created with Sketch.</desc>
    <defs>
        <polygon id="path-1" points="7.52314911e-05 0.289230769 29.3265385 0.289230769 29.3265385 29.6153787 7.52314911e-05 29.6153787"></polygon>
    </defs>
    <g id="Page-1" stroke="none" stroke-width="1" fill="none" fill-rule="evenodd">
        <g id="DASHBOARD" transform="translate(-25.000000, -113.000000)">
            <g id="Group-22" transform="translate(25.000000, 113.000000)">
                <g id="Group-3" transform="translate(0.000000, 0.095308)">
                    <mask id="mask-2" fill="white">
                        <use xlink:href="#path-1"></use>
                    </mask>
                    <g id="Clip-2"></g>
                    <path d="M3.07584615,14.9407308 C3.077,21.3472692 8.25546154,26.5372692 14.6616154,26.5399615 C21.0454615,26.5430385 26.2427692,21.3765 26.2516154,14.9653462 C26.2604615,8.60534615 21.1254615,3.39034615 14.7050769,3.3665 C8.30546154,3.34265385 3.09276923,8.51188462 3.07584615,14.9407308 M29.3266154,14.9553462 C29.3262308,23.0507308 22.7423846,29.6322692 14.662,29.6153462 C6.55161538,29.5980385 -0.00376923077,23.0418846 7.69230769e-05,14.9511154 C0.00353846154,6.85265385 6.58546154,0.277269231 14.6762308,0.289192308 C22.7731538,0.301115385 29.327,6.86226923 29.3266154,14.9553462" id="Fill-1" fill="#000000" mask="url(#mask-2)"></path>
                </g>
                <path d="M24.2135385,9.39903846 C24.2512308,9.47326923 24.2843077,9.53980769 24.3204615,9.6125 C24.0954615,9.78057692 23.8743077,9.94634615 23.6531538,10.1113462 C21.362,11.8217308 19.0708462,13.5321154 16.7785385,15.2405769 C16.7227692,15.2821154 16.6973846,15.3282692 16.6877692,15.3948077 C16.5539231,16.3082692 15.7739231,17.0378846 14.8539231,17.1125 C13.7485385,17.2021154 12.7912308,16.4551923 12.6135385,15.3640385 C12.427,14.2201923 13.2727692,13.1128846 14.4200769,12.9882692 C14.7481538,12.9528846 15.0589231,13.0025 15.3623846,13.1205769 C15.4250769,13.1448077 15.4777692,13.1436538 15.5408462,13.1167308 C18.402,11.8890385 21.2635385,10.6628846 24.1250769,9.43673077 C24.1508462,9.42519231 24.1766154,9.41480769 24.2135385,9.39903846" id="Fill-4" fill="#000000"></path>
                <path d="M23.7132308,14.1218077 C23.949,14.1218077 24.1851538,14.1171923 24.4205385,14.1229615 C24.8816923,14.1341154 25.2666923,14.4871923 25.3159231,14.9364231 C25.3666923,15.4033462 25.0824615,15.8260385 24.6320769,15.9433462 C24.5420769,15.9668077 24.4459231,15.9748846 24.3528462,15.9760385 C24.004,15.9798846 23.6547692,15.9775769 23.3055385,15.9775769 C23.184,15.9775769 23.0597692,15.9929615 22.9401538,15.9764231 C22.5024615,15.9164231 22.1624615,15.5360385 22.1451538,15.1006538 C22.1270769,14.6379615 22.4263077,14.2302692 22.8659231,14.1341154 C22.9655385,14.1125769 23.0720769,14.1225769 23.1759231,14.1214231 C23.3547692,14.1195 23.534,14.1210385 23.7132308,14.1210385 L23.7132308,14.1218077 Z" id="Fill-6" fill="#000000"></path>
                <path d="M5.54576923,15.9923077 C5.30076923,15.9923077 5.05615385,15.9857692 4.81115385,15.9934615 C4.33884615,16.0084615 3.91038462,15.6592308 3.84576923,15.1984615 C3.77538462,14.7007692 4.07538462,14.2469231 4.55,14.1334615 C4.58307692,14.1253846 4.61846154,14.1215385 4.65269231,14.1215385 C5.13692308,14.1211538 5.62076923,14.115 6.105,14.1238462 C6.48192308,14.1303846 6.76038462,14.3161538 6.91961538,14.6542308 C7.07692308,14.9888462 7.04,15.3173077 6.81653846,15.6142308 C6.64230769,15.8457692 6.40269231,15.9669231 6.11192308,15.9753846 C5.92307692,15.9811538 5.73461538,15.9765385 5.54576923,15.9765385 L5.54576923,15.9923077 Z" id="Fill-8" fill="#000000"></path>
                <path d="M22.0418077,18.3999231 C22.2283462,18.4037692 22.3975769,18.4533846 22.5560385,18.5456923 C22.9248846,18.7606923 23.2948846,18.9741538 23.6645,19.1883846 C24.1048846,19.4437692 24.2545,20.0022308 23.9991154,20.4410769 C23.7460385,20.8760769 23.1883462,21.0256923 22.7525769,20.7741538 C22.3691154,20.553 21.9841154,20.3337692 21.6041154,20.1056923 C21.2825769,19.9122308 21.1210385,19.6187692 21.1529615,19.2445385 C21.1868077,18.8476154 21.4029615,18.5745385 21.7845,18.4456923 C21.8660385,18.418 21.9556538,18.4145385 22.0418077,18.3999231" id="Fill-10" fill="#000000"></path>
                <path d="M5.20211538,19.9789615 C5.22019231,19.6262692 5.37480769,19.3585769 5.67942308,19.1808846 C6.04326923,18.9685769 6.41711538,18.7724231 6.76903846,18.5428077 C7.18365385,18.2724231 7.78903846,18.4389615 8.03173077,18.8466538 C8.29211538,19.2828077 8.16019231,19.8439615 7.72173077,20.1074231 C7.41711538,20.2901154 7.10557692,20.4612692 6.7975,20.6385769 C6.74057692,20.6712692 6.68519231,20.7074231 6.62942308,20.7420385 C6.32365385,20.9331923 6.00519231,20.9531923 5.68826923,20.7855 C5.36942308,20.6162692 5.21942308,20.3343462 5.20211538,19.9789615" id="Fill-12" fill="#000000"></path>
                <path d="M13.7365,5.87211538 C13.7365,5.67096154 13.7345769,5.46942308 13.7372692,5.26788462 C13.7422692,4.87480769 13.9868846,4.51942308 14.3668846,4.41980769 C15.0511154,4.23903846 15.5780385,4.69288462 15.5911154,5.27903846 C15.5999615,5.67865385 15.5968846,6.07826923 15.5922692,6.47788462 C15.5861154,6.98826923 15.1772692,7.39057692 14.6688077,7.39480769 C14.1672692,7.39903846 13.7545769,7.00211538 13.7391923,6.49480769 C13.7326538,6.2875 13.7380385,6.07980769 13.7380385,5.87211538 L13.7365,5.87211538 Z" id="Fill-14" fill="#000000"></path>
                <path d="M6.17153846,9.25065385 C6.35192308,9.25411538 6.51923077,9.29873077 6.67576923,9.38873077 C7.02423077,9.59026923 7.37461538,9.78796154 7.72346154,9.98873077 C8.04961538,10.1764231 8.23538462,10.5421923 8.18461538,10.8925769 C8.12692308,11.2925769 7.85730769,11.5925769 7.47192308,11.6791154 C7.245,11.7302692 7.02653846,11.6995 6.825,11.5821923 C6.46115385,11.3698846 6.09846154,11.1556538 5.73846154,10.9368077 C5.41192308,10.7379615 5.25461538,10.3714231 5.32115385,9.98719231 C5.38269231,9.6295 5.66461538,9.34257692 6.03153846,9.26565385 C6.07730769,9.25603846 6.125,9.25526923 6.17153846,9.25065385" id="Fill-16" fill="#000000"></path>
                <path d="M9.78780769,5.66480769 C10.1324231,5.69480769 10.3908846,5.84788462 10.5655,6.13980769 C10.7720385,6.48519231 10.9739615,6.8325 11.1805,7.1775 C11.4462692,7.62057692 11.3108846,8.18173077 10.8712692,8.44326923 C10.4258846,8.70826923 9.86626923,8.56134615 9.6055,8.10865385 C9.40665385,7.76326923 9.20780769,7.4175 9.01242308,7.06942308 C8.71357692,6.53673077 8.96357692,5.90826923 9.54588462,5.72519231 C9.62511538,5.70057692 9.70703846,5.68480769 9.78780769,5.66480769" id="Fill-18" fill="#000000"></path>
                <path d="M18.8747308,8.57419231 C18.5855,8.55842308 18.3089615,8.41803846 18.1351154,8.11419231 C17.9624231,7.81188462 17.9643462,7.50034615 18.1381923,7.19803846 C18.3401154,6.84688462 18.5505,6.49957692 18.7585769,6.15188462 C19.0178077,5.71842308 19.5255,5.57419231 19.9601154,5.80919231 C20.3928077,6.04303846 20.5705,6.57996154 20.3401154,7.01957692 C20.1370385,7.4065 19.9158846,7.78342308 19.6908846,8.15803846 C19.5308846,8.42419231 19.2351154,8.57496154 18.8747308,8.57419231" id="Fill-20" fill="#000000"></path>
            </g>
        </g>
    </g>
</svg>