<?xml version="1.0" encoding="UTF-8"?>
<svg width="34px" height="32px" viewBox="0 0 34 32" version="1.1" xmlns="http://www.w3.org/2000/svg" xmlns:xlink="http://www.w3.org/1999/xlink">
    <!-- Generator: Sketch 51.3 (57544) - http://www.bohemiancoding.com/sketch -->
    <title>Group 6 Copy</title>
    <desc>Created with Sketch.</desc>
    <defs>
        <polygon id="path-1" points="0.0532553191 0 19.9468723 0 19.9468723 22.9504112 0.0532553191 22.9504112"></polygon>
    </defs>
    <g id="Page-1" stroke="none" stroke-width="1" fill="none" fill-rule="evenodd">
        <g id="Desktop-HD" transform="translate(-24.000000, -622.000000)">
            <g id="Group-6-Copy" transform="translate(24.000000, 622.000000)">
                <path d="M32.4969573,18.2516854 L27.3494855,18.2516854 L27.3494855,12.5662921 C27.3494855,12.1666607 27.0266482,11.8426966 26.6284067,11.8426966 C26.2301653,11.8426966 25.907328,12.1666607 25.907328,12.5662921 L25.907328,18.2516854 L11.1388119,18.2516854 C10.5553562,18.2516854 10.0246423,18.5909483 9.77823939,19.1216539 L4.46615552,30.552809 L2.09730894,30.552809 C1.73594549,30.552809 1.44215743,30.2577888 1.44215743,29.895164 L1.44215743,11.104836 C1.44215743,10.7422112 1.73594549,10.447191 2.09730894,10.447191 L3.03883172,10.447191 C3.43707319,10.447191 3.75991043,10.123227 3.75991043,9.72359551 C3.75991043,9.32396404 3.43707319,9 3.03883172,9 L2.09730894,9 C0.940904709,9 0,9.94418876 0,11.104836 L0,29.895164 C0,31.0558112 0.940904709,32 2.09730894,32 L3.79369812,32 L25.2519705,32 L27.5085348,32 C28.0919905,32 28.6224984,31.6607371 28.8691073,31.1300315 L33.8575299,20.3949753 C34.3216985,19.3962067 33.5950572,18.2516854 32.4969573,18.2516854" id="Fill-1" fill="#000000"></path>
                <g id="Group-5" transform="translate(5.000000, 0.000000)">
                    <mask id="mask-2" fill="white">
                        <use xlink:href="#path-1"></use>
                    </mask>
                    <g id="Clip-4"></g>
                    <path d="M18.9866596,4.180825 L15.4604894,0.894799138 C14.8411277,0.317816379 14.0179362,-1.98275862e-05 13.1421915,-1.98275862e-05 L1.96644681,-1.98275862e-05 C0.911340426,-1.98275862e-05 0.0532553191,0.799825 0.0532553191,1.78287672 L0.0532553191,22.2564457 C0.0532553191,22.6397129 0.386659574,22.9504112 0.79793617,22.9504112 C1.20921277,22.9504112 1.54261702,22.6397129 1.54261702,22.2564457 L1.54261702,1.78287672 C1.54261702,1.56516983 1.73261702,1.38791121 1.96644681,1.38791121 L13.1421915,1.38791121 C13.2158085,1.38791121 13.2883617,1.39346293 13.3604894,1.40159224 L13.3604894,4.86467845 C13.3604894,5.56875603 13.9728298,6.13919569 14.7281489,6.13919569 L18.4430426,6.13919569 C18.4515532,6.20581638 18.4575106,6.2730319 18.4575106,6.34123879 L18.4575106,14.1767043 C18.4575106,14.5599716 18.7909149,14.8706698 19.2021915,14.8706698 C19.6134681,14.8706698 19.9468723,14.5599716 19.9468723,14.1767043 L19.9468723,6.34123879 C19.9468723,5.52513534 19.6058085,4.75800603 18.9866596,4.180825" id="Fill-3" fill="#000000" mask="url(#mask-2)"></path>
                </g>
            </g>
        </g>
    </g>
</svg>