<?xml version="1.0" encoding="UTF-8"?>
<svg width="33px" height="30px" viewBox="0 0 33 30" version="1.1" xmlns="http://www.w3.org/2000/svg" xmlns:xlink="http://www.w3.org/1999/xlink">
    <!-- Generator: Sketch 51.1 (57501) - http://www.bohemiancoding.com/sketch -->
    <title>Group 6</title>
    <desc>Created with Sketch.</desc>
    <defs>
        <polygon id="path-1" points="0 0.267692308 32.1738462 0.267692308 32.1738462 29.538264 0 29.538264"></polygon>
    </defs>
    <g id="Page-1" stroke="none" stroke-width="1" fill="none" fill-rule="evenodd">
        <g id="RPA-[Create-New-Project]-[Side-Panel]" transform="translate(-24.000000, -443.000000)">
            <g id="Group-38" transform="translate(0.000000, 113.000000)">
                <g id="Group-6" transform="translate(24.000000, 330.000000)">
                    <g id="Group-3" transform="translate(0.000000, 0.194031)">
                        <mask id="mask-2" fill="white">
                            <use xlink:href="#path-1"></use>
                        </mask>
                        <g id="Clip-2"></g>
                        <path d="M0,14.9109692 L2.90261538,14.9109692 C2.93584615,14.4088154 2.94461538,13.9205077 3.00461538,13.4386615 C3.69830769,7.84435385 6.594,3.7722 11.7327692,1.51850769 C20.2809231,-2.23056923 29.7710769,2.82650769 31.7889231,11.6174308 C33.6636923,19.7843538 28.5124615,27.6923538 20.2287692,29.2555846 C15.2653846,30.1920462 10.8996923,28.7857385 7.24153846,25.2752769 C6.72323077,24.7782 6.636,24.0808154 6.97430769,23.4886615 C7.29646154,22.9242 7.94353846,22.6214308 8.58323077,22.8074308 C8.86430769,22.8891231 9.144,23.0700462 9.35815385,23.2749692 C11.0635385,24.9051231 13.0652308,25.9532769 15.3789231,26.4014308 C21.5487692,27.5982 27.6743077,23.5440462 28.9809231,17.4014308 C30.2981538,11.2085077 26.5546154,5.15266154 20.4295385,3.56958462 C13.8507692,1.86881538 7.13907692,6.23081538 6.02538462,12.9397385 C5.91969231,13.5757385 5.88230769,14.2237385 5.80892308,14.9091231 L8.77292308,14.9091231 C7.29369231,16.8822 5.85830769,18.7971231 4.39384615,20.7503538 C4.29692308,20.6289692 4.21246154,20.5288154 4.13446154,20.4245077 C2.82553846,18.6803538 1.518,16.9352769 0.207692308,15.1911231 C0.148615385,15.1126615 0.0696923077,15.0498923 0,14.9792769 L0,14.9109692 Z" id="Fill-1" fill="#FFFFFF" mask="url(#mask-2)"></path>
                    </g>
                    <path d="M17.5461231,15.1045846 L21.1119692,15.1045846 C21.3515077,15.1045846 21.5915077,15.1041231 21.8310462,15.1050462 C22.7421231,15.1096615 23.3868923,15.7156615 23.3878154,16.5672 C23.3892,17.4136615 22.7393538,18.0307385 21.8292,18.0339692 C20.4473538,18.0385846 19.0655077,18.0353538 17.6836615,18.0353538 C17.1810462,18.0353538 16.6784308,18.0404308 16.1758154,18.0330462 C15.2190462,18.0182769 14.6185846,17.4164308 14.6167385,16.4555077 C14.6130462,13.6004308 14.6125846,10.7453538 14.6167385,7.88981538 C14.6185846,6.98335385 15.2495077,6.32566154 16.0885846,6.33166154 C16.9336615,6.33766154 17.5438154,6.98981538 17.5452,7.89996923 C17.5475077,10.1952 17.5461231,12.4908923 17.5461231,14.7865846 L17.5461231,15.1045846 Z" id="Fill-4" fill="#FFFFFF"></path>
                </g>
            </g>
        </g>
    </g>
</svg>