<svg width="184" height="35" viewBox="0 0 184 35" fill="none" xmlns="http://www.w3.org/2000/svg">
<mask id="mask0" mask-type="alpha" maskUnits="userSpaceOnUse" x="0" y="5" width="30" height="29">
<path fill-rule="evenodd" clip-rule="evenodd" d="M0 5.44446H29.5556V33.4445H0V5.44446Z" fill="white"/>
</mask>
<g mask="url(#mask0)">
<path fill-rule="evenodd" clip-rule="evenodd" d="M17.3862 18.6543C17.3778 18.6316 17.3715 18.608 17.3624 18.5853L27.6997 7.34048L25.6558 5.44446L15.6568 16.3966C14.8659 15.8302 13.902 15.494 12.8586 15.494C10.1806 15.494 8.00967 17.6868 8.00967 20.3919C8.00967 21.5664 8.41987 22.6437 9.10213 23.4877L0 33.4445H3.77122L11.4298 25.073C11.8814 25.2135 12.361 25.2898 12.8586 25.2898C15.1667 25.2898 17.0945 23.6593 17.5839 21.4776H29.5556V18.6543H17.3862ZM14.7778 19.8333C14.7778 20.9075 13.9073 21.7778 12.8334 21.7778C11.7596 21.7778 10.8889 20.9075 10.8889 19.8333C10.8889 18.7594 11.7596 17.8889 12.8334 17.8889C13.9073 17.8889 14.7778 18.7594 14.7778 19.8333Z" fill="#A21E21"/>
</g>
<path fill-rule="evenodd" clip-rule="evenodd" d="M34.2222 4.77336C34.2222 2.13727 32.1328 0 29.5557 0C26.9784 0 24.8889 2.13727 24.8889 4.77336C24.8889 6.96493 26.335 8.80699 28.3028 9.36771V26.4444H30.8711V9.35114C32.8072 8.76995 34.2222 6.94215 34.2222 4.77336ZM31.1111 4.27778C31.1111 5.35171 30.2407 6.22222 29.1668 6.22222C28.0929 6.22222 27.2222 5.35171 27.2222 4.27778C27.2222 3.20406 28.0929 2.33333 29.1668 2.33333C30.2407 2.33333 31.1111 3.20406 31.1111 4.27778Z" fill="#FEFEFE"/>
<path fill-rule="evenodd" clip-rule="evenodd" d="M34.2222 29.5556C34.2222 26.9784 32.1328 24.8889 29.5557 24.8889C26.9784 24.8889 24.8889 26.9784 24.8889 29.5556C24.8889 32.133 26.9784 34.2222 29.5557 34.2222C32.1328 34.2222 34.2222 32.133 34.2222 29.5556ZM31.1111 29.1667C31.1111 30.2406 30.2407 31.1111 29.1668 31.1111C28.0929 31.1111 27.2222 30.2406 27.2222 29.1667C27.2222 28.093 28.0929 27.2222 29.1668 27.2222C30.2407 27.2222 31.1111 28.093 31.1111 29.1667Z" fill="#A21E21"/>
<path fill-rule="evenodd" clip-rule="evenodd" d="M49.0101 11.6666L52.1111 18.6666H45.8889L49.0101 11.6666ZM45.1224 19.8598H52.0998L53.6029 23.3333H55.2222L49.2857 10.1111H47.9365L42 23.3333H43.6193L45.1224 19.8598ZM62.7505 10.1111H60.6667V23.3333H62.0309V11.9037H62.0683L66.9178 23.3333H67.6377L72.487 11.9037H72.5249V23.3333H73.8889V10.1111H71.8052L67.2778 20.8683L62.7505 10.1111ZM86.3437 11.6666L89.4444 18.6666H83.2222L86.3437 11.6666ZM83.2337 19.8598H90.2107L91.7141 23.3333H93.3333L87.397 10.1111H86.0475L80.1111 23.3333H81.7304L83.2337 19.8598ZM100.333 11.6666H102.649C103.228 11.6666 103.719 11.7268 104.123 11.8461C104.527 11.9662 104.849 12.1329 105.091 12.3468C105.331 12.5614 105.506 12.8097 105.615 13.0933C105.723 13.3767 105.778 13.6758 105.778 13.9906C105.778 14.3182 105.723 14.6237 105.615 14.9068C105.506 15.1904 105.331 15.436 105.091 15.644C104.849 15.8515 104.527 16.0187 104.123 16.1442C103.719 16.2704 103.228 16.3333 102.649 16.3333H100.333V11.6666ZM100.195 17.1892H102.559L106.378 23.3333H108.111L104.094 17.0584C105.249 16.9586 106.132 16.5945 106.743 15.9658C107.353 15.3374 107.658 14.5623 107.658 13.6407C107.658 12.4578 107.248 11.574 106.428 10.9888C105.607 10.4036 104.488 10.1111 103.07 10.1111H98.7778V23.3333H100.195V17.1892ZM114.333 23.3333H115.889V10.1111H114.333V23.3333ZM130.442 11.7292C129.916 11.1273 129.347 10.7071 128.734 10.4684C128.121 10.2302 127.439 10.1111 126.689 10.1111C126.151 10.1111 125.625 10.1862 125.113 10.3366C124.6 10.4873 124.14 10.7196 123.734 11.0329C123.327 11.3467 123.002 11.7419 122.758 12.2186C122.514 12.6955 122.392 13.2536 122.392 13.8934C122.392 14.5081 122.489 15.0192 122.683 15.4269C122.877 15.8346 123.134 16.1734 123.453 16.4429C123.772 16.7129 124.134 16.9355 124.541 17.1111C124.947 17.2869 125.366 17.4435 125.798 17.5816C126.229 17.7196 126.648 17.8578 127.055 17.9955C127.461 18.1334 127.824 18.3058 128.143 18.513C128.462 18.7199 128.718 18.9772 128.912 19.2844C129.106 19.592 129.203 19.9777 129.203 20.4417C129.203 20.8308 129.116 21.1757 128.942 21.4768C128.767 21.7778 128.545 22.0317 128.277 22.2389C128.01 22.4458 127.707 22.603 127.37 22.709C127.034 22.8158 126.697 22.8689 126.36 22.8689C125.662 22.8689 125.058 22.7219 124.546 22.4267C124.035 22.1324 123.636 21.7402 123.349 21.251L122.111 22.1352C122.624 22.838 123.246 23.3429 123.978 23.6501C124.71 23.9573 125.482 24.1111 126.295 24.1111C126.82 24.1111 127.342 24.0231 127.862 23.8477C128.381 23.6723 128.849 23.4214 129.269 23.0951C129.688 22.7691 130.026 22.3643 130.282 21.8813C130.538 21.3985 130.667 20.8555 130.667 20.2536C130.667 19.4509 130.498 18.8172 130.16 18.353C129.822 17.8888 129.403 17.5156 128.903 17.2334C128.403 16.9509 127.855 16.7254 127.261 16.5559C126.667 16.3866 126.119 16.1952 125.62 15.9821C125.119 15.7691 124.7 15.4957 124.362 15.1635C124.025 14.8314 123.856 14.3635 123.856 13.7614C123.856 13.3476 123.937 12.987 124.1 12.6796C124.262 12.3722 124.478 12.1215 124.747 11.927C125.016 11.7326 125.319 11.5883 125.657 11.4942C125.995 11.4 126.339 11.353 126.689 11.353C127.815 11.353 128.671 11.7859 129.26 12.6513L130.442 11.7292ZM144.667 23.3333H147.907L149.019 20.5319H154.201L155.35 23.3333H158.667L152.863 10.1111H150.432L144.667 23.3333ZM153.222 17.8889H150.111L151.658 14L153.222 17.8889ZM164.111 23.3333H167.222V10.1111H164.111V23.3333Z" fill="#FEFEFE"/>
<path fill-rule="evenodd" clip-rule="evenodd" d="M138.833 20.2223C140.337 20.2223 141.556 19.0035 141.556 17.5002C141.556 15.9966 140.337 14.7778 138.833 14.7778C137.33 14.7778 136.111 15.9966 136.111 17.5002C136.111 19.0035 137.33 20.2223 138.833 20.2223Z" fill="#A21E21"/>
<path d="M182 6V31" stroke="#00FFFF" stroke-width="3" stroke-linecap="square"/>
</svg>
