<?xml version="1.0" encoding="UTF-8"?>
<svg width="30px" height="30px" viewBox="0 0 30 30" version="1.1" xmlns="http://www.w3.org/2000/svg" xmlns:xlink="http://www.w3.org/1999/xlink">
    <!-- Generator: Sketch 51.1 (57501) - http://www.bohemiancoding.com/sketch -->
    <title>Group 12</title>
    <desc>Created with Sketch.</desc>
    <defs>
        <polygon id="path-1" points="0.00453 0.0363 22.747721 0.0363 22.747721 25.68606 0.00453 25.68606"></polygon>
    </defs>
    <g id="Page-1" stroke="none" stroke-width="1" fill="none" fill-rule="evenodd">
        <g id="DASHBOARD" transform="translate(-25.000000, -198.000000)">
            <g id="Group-12" transform="translate(25.000000, 198.000000)">
                <path d="M10.76826,25.90344 C10.74246,26.51574 11.04576,26.73174 11.52756,26.51454 C11.90916,26.34264 12.27516,26.13504 12.64596,25.93944 C13.42536,25.52784 14.20476,25.52904 14.98566,25.93344 C15.35796,26.12604 15.72186,26.33664 16.10196,26.51184 C16.59396,26.73834 16.91886,26.51304 16.86936,25.97214 C16.83126,25.55604 16.74516,25.14384 16.67526,24.73044 C16.53126,23.87994 16.74126,23.13954 17.35806,22.52604 C17.65536,22.22994 17.98056,21.95724 18.24696,21.63564 C18.37506,21.48114 18.49506,21.20214 18.43806,21.04434 C18.37956,20.88114 18.11676,20.74314 17.91756,20.68914 C17.57346,20.59614 17.21016,20.57064 16.85346,20.52714 C15.93906,20.41584 15.26406,19.96674 14.85696,19.13214 C14.69946,18.80934 14.56926,18.46764 14.37246,18.17064 C14.23806,17.96754 14.01186,17.69694 13.82346,17.69454 C13.63806,17.69214 13.40526,17.96094 13.27206,18.16314 C13.06926,18.47094 12.93396,18.82284 12.77076,19.15644 C12.40806,19.89834 11.81316,20.33904 11.00766,20.48904 C10.60746,20.56374 10.20216,20.61084 9.79956,20.66964 C9.53136,20.70864 9.21096,20.76144 9.18336,21.05964 C9.16416,21.26724 9.31386,21.52794 9.46026,21.70584 C9.71046,22.00944 10.02096,22.26294 10.29966,22.54404 C10.90236,23.15124 11.10636,23.88324 10.96626,24.71964 C10.89486,25.14474 10.82406,25.56984 10.76826,25.90344 M13.81356,29.96364 C10.00746,29.96334 6.20076,29.96364 2.39466,29.96334 C1.00746,29.96334 0.00246,28.97004 0.00186,27.58524 C-0.00054,22.27794 -0.00054,16.97064 0.00156,11.66304 C0.00246,10.21854 0.97806,9.24294 2.42046,9.23994 C4.29366,9.23634 6.16686,9.24324 8.03976,9.23394 C8.26236,9.23274 8.37996,9.30744 8.48856,9.49704 C9.42456,11.13144 10.37526,12.75714 11.30796,14.39334 C11.44356,14.63124 11.58846,14.72154 11.86956,14.72094 C16.30026,14.71074 20.73096,14.71314 25.16196,14.71524 C26.67726,14.71614 27.63936,15.67584 27.64026,17.18694 C27.64266,20.64564 27.64236,24.10374 27.64176,27.56184 C27.64176,28.96254 26.63706,29.96334 25.23306,29.96364 C21.42666,29.96394 17.62026,29.96364 13.81356,29.96364" id="Fill-1" fill="#FFFFFF"></path>
                <g id="Group-5" transform="translate(7.200000, 0.263850)">
                    <mask id="mask-2" fill="white">
                        <use xlink:href="#path-1"></use>
                    </mask>
                    <g id="Clip-4"></g>
                    <path d="M1.13193,7.77846 L0.00453,7.77846 L0.00453,7.43646 C0.00483,5.79186 0.00393,4.14696 0.00603,2.50176 C0.00813,1.01346 0.97563,0.04206 2.46123,0.04176 C7.37193,0.04026 12.28263,0.04296 17.19333,0.03606 C17.45553,0.03576 17.64153,0.11556 17.82483,0.30006 C19.38123,1.86816 20.95023,3.42336 22.50093,4.99656 C22.63473,5.13216 22.73613,5.36736 22.73643,5.55666 C22.74903,11.58396 22.75023,17.61096 22.74423,23.63826 C22.74363,24.47586 22.45113,25.18326 21.64053,25.68606 L21.64053,5.20206 C21.07983,5.20206 20.56803,5.20206 20.05623,5.20176 C18.46743,5.20146 17.57973,4.31046 17.58513,2.72376 C17.58693,2.22156 17.58543,1.71936 17.58543,1.16736 L17.17653,1.16736 C12.26583,1.16736 7.35513,1.16676 2.44443,1.16766 C1.58883,1.16796 1.13283,1.62306 1.13223,2.47716 C1.13073,4.23006 1.13193,5.98266 1.13193,7.77846" id="Fill-3" fill="#FFFFFF" mask="url(#mask-2)"></path>
                </g>
                <path d="M18.43233,7.77132 C16.30923,7.77132 14.18583,7.77162 12.06273,7.77102 C11.95473,7.77102 11.84493,7.77912 11.73903,7.76322 C11.44833,7.71972 11.22363,7.46502 11.24523,7.19112 C11.26863,6.89082 11.44593,6.71052 11.73843,6.65412 C11.84283,6.63432 11.95353,6.64572 12.06153,6.64542 C16.30803,6.64512 20.55423,6.64512 24.80103,6.64542 C24.90873,6.64542 25.01913,6.63462 25.12413,6.65382 C25.41783,6.70782 25.59333,6.88992 25.61883,7.18902 C25.64163,7.46052 25.41663,7.71552 25.12533,7.76292 C25.03143,7.77792 24.93393,7.77102 24.83823,7.77102 C22.70253,7.77162 20.56743,7.77132 18.43233,7.77132" id="Fill-6" fill="#FFFFFF"></path>
                <path d="M18.42645,9.52737 L24.83235,9.52737 C24.92805,9.52767 25.02555,9.52047 25.11975,9.53427 C25.41375,9.57807 25.63815,9.82647 25.61865,10.10187 C25.59735,10.40217 25.42035,10.58277 25.12965,10.64337 C25.03725,10.66257 24.93855,10.65297 24.84285,10.65297 C20.56005,10.65327 16.27785,10.65327 11.99535,10.65327 C11.97105,10.65327 11.94705,10.65357 11.92335,10.65327 C11.50335,10.64547 11.23425,10.41777 11.24265,10.07757 C11.25075,9.74967 11.51055,9.53007 11.91285,9.52857 C13.16025,9.52467 14.40765,9.52617 15.65565,9.52587 L18.42645,9.52587 L18.42645,9.52737 Z" id="Fill-8" fill="#FFFFFF"></path>
                <path d="M11.55957,12.43215 C11.76717,12.42195 11.89497,12.41025 12.02277,12.41025 C16.29447,12.40905 20.56617,12.40935 24.83817,12.40965 C24.93387,12.40965 25.03227,12.40035 25.12527,12.41805 C25.41897,12.47415 25.59417,12.65505 25.61877,12.95475 C25.64097,13.22595 25.41537,13.48155 25.12317,13.52685 C25.01727,13.54335 24.90777,13.53525 24.79977,13.53525 C20.72007,13.53555 16.64037,13.53225 12.56067,13.54185 C12.28677,13.54245 12.11757,13.47945 12.00327,13.22145 C11.89227,12.97185 11.73687,12.74235 11.55957,12.43215" id="Fill-10" fill="#FFFFFF"></path>
            </g>
        </g>
    </g>
</svg>