<?xml version="1.0" encoding="UTF-8"?>
<svg width="29px" height="30px" viewBox="0 0 29 30" version="1.1" xmlns="http://www.w3.org/2000/svg" xmlns:xlink="http://www.w3.org/1999/xlink">
    <!-- Generator: Sketch 51.1 (57501) - http://www.bohemiancoding.com/sketch -->
    <title>Group 12</title>
    <desc>Created with Sketch.</desc>
    <defs>
        <polygon id="path-1" points="0.00438387097 0.0363 22.0139236 0.0363 22.0139236 25.68606 0.00438387097 25.68606"></polygon>
    </defs>
    <g id="Page-1" stroke="none" stroke-width="1" fill="none" fill-rule="evenodd">
        <g id="CURRENT-PROJECTS-[EXTENDED]" transform="translate(-25.000000, -198.000000)">
            <g id="Group-12" transform="translate(25.000000, 198.000000)">
                <path d="M10.4208968,25.90344 C10.395929,26.51574 10.6894452,26.73174 11.1557032,26.51454 C11.5249935,26.34264 11.8791871,26.13504 12.2380258,25.93944 C12.9922839,25.52784 13.7465419,25.52904 14.5022516,25.93344 C14.8625419,26.12604 15.2147032,26.33664 15.5825419,26.51184 C16.058671,26.73834 16.3730903,26.51304 16.3251871,25.97214 C16.2883161,25.55604 16.2049935,25.14384 16.1373484,24.73044 C15.9979935,23.87994 16.2012194,23.13954 16.7981226,22.52604 C17.0858323,22.22994 17.4005419,21.95724 17.6583484,21.63564 C17.7823161,21.48114 17.8984452,21.20214 17.8432839,21.04434 C17.786671,20.88114 17.5323484,20.74314 17.3395742,20.68914 C17.0065742,20.59614 16.6549935,20.57064 16.3098,20.52714 C15.4248968,20.41584 14.771671,19.96674 14.3777032,19.13214 C14.2252839,18.80934 14.0992839,18.46764 13.9088323,18.17064 C13.7787677,17.96754 13.5598645,17.69694 13.3775419,17.69454 C13.1981226,17.69214 12.9728323,17.96094 12.843929,18.16314 C12.647671,18.47094 12.5167355,18.82284 12.3588,19.15644 C12.0078,19.89834 11.4320903,20.33904 10.6525742,20.48904 C10.2652839,20.56374 9.87305806,20.61084 9.48344516,20.66964 C9.22389677,20.70864 8.91383226,20.76144 8.88712258,21.05964 C8.86854194,21.26724 9.0134129,21.52794 9.15509032,21.70584 C9.39721935,22.00944 9.69770323,22.26294 9.9674129,22.54404 C10.550671,23.15124 10.7480903,23.88324 10.6125097,24.71964 C10.5434129,25.14474 10.4748968,25.56984 10.4208968,25.90344 M13.3679613,29.96364 C9.68463871,29.96334 6.00073548,29.96364 2.3174129,29.96334 C0.97496129,29.96334 0.00238064516,28.97004 0.0018,27.58524 C-0.000522580645,22.27794 -0.000522580645,16.97064 0.00150967742,11.66304 C0.00238064516,10.21854 0.946509677,9.24294 2.34238065,9.23994 C4.15515484,9.23634 5.96792903,9.24324 7.7804129,9.23394 C7.99583226,9.23274 8.10963871,9.30744 8.21473548,9.49704 C9.12054194,11.13144 10.0405742,12.75714 10.9431871,14.39334 C11.0744129,14.63124 11.2146387,14.72154 11.486671,14.72094 C15.7744452,14.71074 20.0622194,14.71314 24.3502839,14.71524 C25.8167032,14.71614 26.7477677,15.67584 26.7486387,17.18694 C26.7509613,20.64564 26.750671,24.10374 26.7500903,27.56184 C26.7500903,28.96254 25.7778,29.96334 24.4190903,29.96364 C20.7354774,29.96394 17.0518645,29.96364 13.3679613,29.96364" id="Fill-1" fill="#000000"></path>
                <g id="Group-5" transform="translate(6.967742, 0.263850)">
                    <mask id="mask-2" fill="white">
                        <use xlink:href="#path-1"></use>
                    </mask>
                    <g id="Clip-4"></g>
                    <path d="M1.09541613,7.77846 L0.00438387097,7.77846 L0.00438387097,7.43646 C0.00467419355,5.79186 0.00380322581,4.14696 0.00583548387,2.50176 C0.00786774194,1.01346 0.944158065,0.04206 2.38183548,0.04176 C7.13412581,0.04026 11.8864161,0.04296 16.6387065,0.03606 C16.8924484,0.03576 17.0724484,0.11556 17.2498355,0.30006 C18.756029,1.86816 20.2744161,3.42336 21.7750935,4.99656 C21.9045774,5.13216 22.0027065,5.36736 22.0029968,5.55666 C22.0151903,11.58396 22.0163516,17.61096 22.0105452,23.63826 C22.0099645,24.47586 21.7269,25.18326 20.9424484,25.68606 L20.9424484,5.20206 C20.3998355,5.20206 19.9045452,5.20206 19.4092548,5.20176 C17.8717065,5.20146 17.0126419,4.31046 17.0178677,2.72376 C17.0196097,2.22156 17.0181581,1.71936 17.0181581,1.16736 L16.6224484,1.16736 C11.8701581,1.16736 7.11786774,1.16676 2.36557742,1.16766 C1.53757742,1.16796 1.0962871,1.62306 1.09570645,2.47716 C1.09425484,4.23006 1.09541613,5.98266 1.09541613,7.77846" id="Fill-3" fill="#000000" mask="url(#mask-2)"></path>
                </g>
                <path d="M17.8377387,7.77132 C15.7831258,7.77132 13.7282226,7.77162 11.6736097,7.77102 C11.5690935,7.77102 11.4628355,7.77912 11.3603516,7.76322 C11.079029,7.71972 10.8615774,7.46502 10.8824806,7.19112 C10.9051258,6.89082 11.0767065,6.71052 11.359771,6.65412 C11.4608032,6.63432 11.5679323,6.64572 11.6724484,6.64542 C15.7819645,6.64512 19.8911903,6.64512 24.0009968,6.64542 C24.1052226,6.64542 24.2120613,6.63462 24.3136742,6.65382 C24.5979,6.70782 24.7677387,6.88992 24.7924161,7.18902 C24.8144806,7.46052 24.5967387,7.71552 24.3148355,7.76292 C24.2239645,7.77792 24.1296097,7.77102 24.0369968,7.77102 C21.9701903,7.77162 19.9039645,7.77132 17.8377387,7.77132" id="Fill-6" fill="#000000"></path>
                <path d="M17.8320484,9.52737 L24.0313065,9.52737 C24.1239194,9.52767 24.2182742,9.52047 24.3094355,9.53427 C24.5939516,9.57807 24.8111129,9.82647 24.7922419,10.10187 C24.771629,10.40217 24.6003387,10.58277 24.3190161,10.64337 C24.2295968,10.66257 24.1340806,10.65297 24.0414677,10.65297 C19.8968226,10.65327 15.7527581,10.65327 11.6084032,10.65327 C11.5848871,10.65327 11.5616613,10.65357 11.5387258,10.65327 C11.1322742,10.64547 10.8718548,10.41777 10.8799839,10.07757 C10.8878226,9.74967 11.1392419,9.53007 11.5285645,9.52857 C12.7357258,9.52467 13.9428871,9.52617 15.150629,9.52587 L17.8320484,9.52587 L17.8320484,9.52737 Z" id="Fill-8" fill="#000000"></path>
                <path d="M11.1866806,12.43215 C11.3875839,12.42195 11.5112613,12.41025 11.6349387,12.41025 C15.7688419,12.40905 19.9027452,12.40935 24.0369387,12.40965 C24.1295516,12.40965 24.2247774,12.40035 24.3147774,12.41805 C24.5990032,12.47415 24.7685516,12.65505 24.7923581,12.95475 C24.8138419,13.22595 24.5955194,13.48155 24.3127452,13.52685 C24.2102613,13.54335 24.1042935,13.53525 23.9997774,13.53525 C20.0516806,13.53555 16.1035839,13.53225 12.1554871,13.54185 C11.8904226,13.54245 11.7266806,13.47945 11.6160677,13.22145 C11.5086484,12.97185 11.3582613,12.74235 11.1866806,12.43215" id="Fill-10" fill="#000000"></path>
            </g>
        </g>
    </g>
</svg>