<?xml version="1.0" encoding="UTF-8"?>
<svg width="27px" height="25px" viewBox="0 0 27 25" version="1.1" xmlns="http://www.w3.org/2000/svg" xmlns:xlink="http://www.w3.org/1999/xlink">
    <!-- Generator: Sketch 51.1 (57501) - http://www.bohemiancoding.com/sketch -->
    <title>Group 6</title>
    <desc>Created with Sketch.</desc>
    <defs>
        <polygon id="path-1" points="0 0.223076923 26.8115385 0.223076923 26.8115385 24.61522 0 24.61522"></polygon>
    </defs>
    <g id="Page-1" stroke="none" stroke-width="1" fill="none" fill-rule="evenodd">
        <g id="Group-6">
            <g id="Group-3" transform="translate(0.000000, 0.161692)">
                <mask id="mask-2" fill="white">
                    <use xlink:href="#path-1"></use>
                </mask>
                <g id="Clip-2"></g>
                <path d="M0,12.4258077 L2.41884615,12.4258077 C2.44653846,12.0073462 2.45384615,11.6004231 2.50384615,11.1988846 C3.08192308,6.53696154 5.495,3.1435 9.77730769,1.26542308 C16.9007692,-1.85880769 24.8092308,2.35542308 26.4907692,9.68119231 C28.0530769,16.4869615 23.7603846,23.0769615 16.8573077,24.3796538 C12.7211538,25.1600385 9.08307692,23.9881154 6.03461538,21.0627308 C5.60269231,20.6485 5.53,20.0673462 5.81192308,19.5738846 C6.08038462,19.1035 6.61961538,18.8511923 7.15269231,19.0061923 C7.38692308,19.0742692 7.62,19.2250385 7.79846154,19.3958077 C9.21961538,20.7542692 10.8876923,21.6277308 12.8157692,22.0011923 C17.9573077,22.9985 23.0619231,19.6200385 24.1507692,14.5011923 C25.2484615,9.34042308 22.1288462,4.29388462 17.0246154,2.97465385 C11.5423077,1.55734615 5.94923077,5.19234615 5.02115385,10.7831154 C4.93307692,11.3131154 4.90192308,11.8531154 4.84076923,12.4242692 L7.31076923,12.4242692 C6.07807692,14.0685 4.88192308,15.6642692 3.66153846,17.2919615 C3.58076923,17.1908077 3.51038462,17.1073462 3.44538462,17.0204231 C2.35461538,15.5669615 1.265,14.1127308 0.173076923,12.6592692 C0.123846154,12.5938846 0.0580769231,12.5415769 0,12.4827308 L0,12.4258077 Z" id="Fill-1" fill="#000000" mask="url(#mask-2)"></path>
            </g>
            <path d="M14.6217692,12.5871538 L17.5933077,12.5871538 C17.7929231,12.5871538 17.9929231,12.5867692 18.1925385,12.5875385 C18.9517692,12.5913846 19.4890769,13.0963846 19.4898462,13.806 C19.491,14.5113846 18.9494615,15.0256154 18.191,15.0283077 C17.0394615,15.0321538 15.8879231,15.0294615 14.7363846,15.0294615 C14.3175385,15.0294615 13.8986923,15.0336923 13.4798462,15.0275385 C12.6825385,15.0152308 12.1821538,14.5136923 12.1806154,13.7129231 C12.1775385,11.3336923 12.1771538,8.95446154 12.1806154,6.57484615 C12.1821538,5.81946154 12.7079231,5.27138462 13.4071538,5.27638462 C14.1113846,5.28138462 14.6198462,5.82484615 14.621,6.58330769 C14.6229231,8.496 14.6217692,10.4090769 14.6217692,12.3221538 L14.6217692,12.5871538 Z" id="Fill-4" fill="#000000"></path>
        </g>
    </g>
</svg>