<?xml version="1.0" encoding="UTF-8"?>
<svg width="31px" height="30px" viewBox="0 0 31 30" version="1.1" xmlns="http://www.w3.org/2000/svg" xmlns:xlink="http://www.w3.org/1999/xlink">
    <!-- Generator: Sketch 51.1 (57501) - http://www.bohemiancoding.com/sketch -->
    <title>Group 16</title>
    <desc>Created with Sketch.</desc>
    <defs>
        <polygon id="path-1" points="0 -0.000132352941 30.4425 -0.000132352941 30.4425 29.9023676 0 29.9023676"></polygon>
    </defs>
    <g id="Page-1" stroke="none" stroke-width="1" fill="none" fill-rule="evenodd">
        <g id="RPA-[Create-New-Project]-[Side-Panel]" transform="translate(-25.000000, -368.000000)">
            <g id="Group-38" transform="translate(0.000000, 113.000000)">
                <g id="Group-16" transform="translate(25.000000, 255.000000)">
                    <mask id="mask-2" fill="white">
                        <use xlink:href="#path-1"></use>
                    </mask>
                    <g id="Clip-2"></g>
                    <path d="M1.9725,27.9404559 L28.4730882,27.9404559 L28.4730882,10.2011912 L1.9725,10.2011912 L1.9725,27.9404559 Z M0,28.2673676 L0,4.12883824 C0.0189705882,4.07413235 0.0401470588,4.01986765 0.0569117647,3.96427941 C0.360882353,2.97251471 1.03764706,2.46780882 2.07926471,2.46472059 C3.04985294,2.46119118 4.02044118,2.46339706 4.99147059,2.46472059 C5.07661765,2.46472059 5.16132353,2.47663235 5.26852941,2.48501471 L5.26852941,2.79869118 C5.26852941,3.73001471 5.24779412,4.66222059 5.27911765,5.59222059 C5.29147059,5.96898529 5.34794118,6.37442647 5.50588235,6.70972059 C5.93911765,7.62780882 6.73279412,7.95869118 7.71970588,7.94325 C9.13058824,7.92119118 10.0429412,7.02427941 10.0464706,5.61472059 C10.0491176,4.67325 10.0469118,3.73222059 10.0469118,2.79075 L10.0469118,2.48633824 L20.6188235,2.48633824 C20.6258824,2.53001471 20.6320588,2.54986765 20.6320588,2.56883824 C20.6333824,3.58927941 20.6276471,4.60972059 20.6355882,5.63016176 C20.6435294,6.58707353 21.0547059,7.31457353 21.9375,7.71736765 C22.5436765,7.99398529 23.1970588,7.97280882 23.8336765,7.84398529 C24.8960294,7.62869118 25.4082353,6.98633824 25.4148529,5.90192647 C25.4219118,4.87177941 25.4166176,3.84163235 25.4166176,2.81104412 L25.4166176,2.47663235 C25.5357353,2.47177941 25.6226471,2.46427941 25.7095588,2.46427941 C26.5522059,2.46295588 27.3939706,2.46075 28.2361765,2.46251471 C29.6633824,2.46560294 30.4411765,3.24427941 30.4411765,4.66707353 L30.4411765,17.8331029 C30.4411765,21.1520735 30.4398529,24.4706029 30.4429412,27.7891324 C30.4433824,28.2792794 30.3397059,28.7310441 30.0370588,29.1263382 C29.5879412,29.7113382 28.9769118,29.90325 28.2626471,29.9023676 C24.4685294,29.89575 20.6739706,29.9001618 16.8802941,29.9001618 C11.9761765,29.9001618 7.0725,29.9041324 2.16882353,29.8891324 C1.79470588,29.88825 1.39897059,29.8026618 1.05308824,29.6597206 C0.450441176,29.4104559 0.179558824,28.8620735 0,28.2673676 Z" id="Fill-1" fill="#FFFFFF" mask="url(#mask-2)"></path>
                    <path d="M24.4421912,3.46389706 L24.4404265,3.46389706 C24.4404265,2.75095588 24.4426324,2.03757353 24.4382206,1.32419118 C24.4373382,1.17727941 24.4307206,1.02551471 24.3932206,0.884338235 C24.2348382,0.293161765 23.7866029,0.00286764706 23.0524853,-0.000220588235 C22.0673382,-0.00375 21.6116029,0.445367647 21.6085147,1.42433824 C21.6063088,2.02875 21.6023382,2.63272059 21.6058676,3.23669118 C21.6111618,4.11772059 21.5970441,5.00007353 21.6389559,5.88022059 C21.6671912,6.47095588 22.14675,6.88963235 22.7379265,6.92757353 C22.8861618,6.93683824 23.0348382,6.93683824 23.1830735,6.93419118 C23.9586618,6.91875 24.4351324,6.44007353 24.4408676,5.66272059 C24.4461618,4.92992647 24.4421912,4.19669118 24.4421912,3.46389706 M6.24189706,3.47404412 C6.24189706,4.19713235 6.24057353,4.92022059 6.24322059,5.64286765 C6.24366176,5.77080882 6.24675,5.90227941 6.27454412,6.02625 C6.43116176,6.71889706 7.03248529,7.05772059 7.92851471,6.96551471 C8.64057353,6.89272059 9.06763235,6.42595588 9.07380882,5.66139706 C9.08527941,4.21566176 9.08483824,2.76948529 9.07292647,1.32375 C9.06586765,0.496985294 8.57219118,0.0324264706 7.74013235,0.0271323529 C7.69072059,0.0266911765 7.64130882,0.0266911765 7.59189706,0.0271323529 C6.72675,0.0311029412 6.24498529,0.506691176 6.24233824,1.36477941 C6.24013235,2.06801471 6.24189706,2.77125 6.24189706,3.47404412" id="Fill-3" fill="#FFFFFF" mask="url(#mask-2)"></path>
                    <path d="M6.24194118,3.47422059 C6.24194118,2.77098529 6.24017647,2.06775 6.24238235,1.36495588 C6.24502941,0.506426471 6.72679412,0.0308382353 7.59194118,0.0273088235 C7.64135294,0.0268676471 7.69076471,0.0268676471 7.74017647,0.0273088235 C8.57223529,0.0321617647 9.06591176,0.497161765 9.07297059,1.32392647 C9.08488235,2.76922059 9.08532353,4.21583824 9.07385294,5.66157353 C9.06767647,6.42569118 8.64061765,6.89289706 7.92855882,6.96569118 C7.03252941,7.05745588 6.43120588,6.71863235 6.27458824,6.02598529 C6.24679412,5.90245588 6.24370588,5.77098529 6.24326471,5.64304412 C6.24061765,4.91995588 6.24194118,4.19730882 6.24194118,3.47422059" id="Fill-4" fill="#FFFFFF" mask="url(#mask-2)"></path>
                    <path d="M24.4421912,3.46389706 C24.4421912,4.19669118 24.4461618,4.92992647 24.4408676,5.66272059 C24.4351324,6.44007353 23.9586618,6.91875 23.1830735,6.93419118 C23.0348382,6.93683824 22.8861618,6.93683824 22.7379265,6.92757353 C22.14675,6.88963235 21.6671912,6.47095588 21.6389559,5.88022059 C21.5970441,5.00007353 21.6111618,4.11772059 21.6058676,3.23669118 C21.6023382,2.63272059 21.6063088,2.02875 21.6085147,1.42433824 C21.6116029,0.445367647 22.0673382,-0.00375 23.0524853,-0.000220588235 C23.7866029,0.00286764706 24.2348382,0.293161765 24.3932206,0.884338235 C24.4307206,1.02551471 24.4373382,1.17727941 24.4382206,1.32419118 C24.4426324,2.03757353 24.4404265,2.75095588 24.4404265,3.46389706 L24.4421912,3.46389706 Z" id="Fill-5" fill="#FFFFFF" mask="url(#mask-2)"></path>
                    <path d="M6.55773529,26.0608235 C6.02302941,26.0608235 5.48788235,26.0546471 4.95317647,26.0634706 C4.68097059,26.0678824 4.55435294,25.9646471 4.55744118,25.6800882 C4.56582353,24.7492059 4.56626471,23.8183235 4.56008824,22.8874412 C4.55788235,22.6143529 4.68626471,22.5190588 4.94038235,22.5195 C6.01994118,22.5221471 7.09994118,22.5208235 8.17905882,22.5172941 C8.45435294,22.5164118 8.56597059,22.6403824 8.56288235,22.9178824 C8.55405882,23.8289118 8.56111765,24.7403824 8.55891176,25.6514118 C8.55802941,25.992 8.487,26.0590588 8.13229412,26.0603824 C7.60773529,26.0625882 7.08229412,26.0608235 6.55773529,26.0608235" id="Fill-6" fill="#FFFFFF" mask="url(#mask-2)"></path>
                    <path d="M12.2775441,26.0608235 C11.7423971,26.0608235 11.2076912,26.0634706 10.6729853,26.0599412 C10.3385735,26.0581765 10.2715147,25.9928824 10.2710735,25.6606765 C10.2688676,24.7395 10.2768088,23.8187647 10.2688676,22.8975882 C10.2666618,22.6306765 10.3769559,22.5190588 10.6381324,22.5195 C11.7273971,22.5225882 12.8171029,22.5221471 13.9059265,22.5203824 C14.16975,22.5199412 14.2729853,22.6465588 14.2712206,22.9072941 C14.2641618,23.8280294 14.2637206,24.7487647 14.2716618,25.6699412 C14.2734265,25.9487647 14.1578382,26.0665588 13.8816618,26.0630294 C13.3469559,26.0555294 12.81225,26.0608235 12.2775441,26.0608235" id="Fill-7" fill="#FFFFFF" mask="url(#mask-2)"></path>
                    <path d="M17.9550882,26.0612647 C17.4305294,26.0608235 16.9055294,26.0634706 16.3805294,26.0599412 C16.0474412,26.0581765 15.9817059,25.9942059 15.9808235,25.6584706 C15.9781765,24.7372941 15.9847941,23.8161176 15.9772941,22.8949412 C15.9746471,22.6262647 16.0906765,22.5190588 16.3500882,22.5195 C17.4393529,22.5225882 18.5290588,22.5217059 19.6183235,22.5208235 C19.8605294,22.5208235 19.9796471,22.6267059 19.9783235,22.8812647 C19.9730294,23.8218529 19.9734706,24.7628824 19.9792059,25.7034706 C19.9805294,25.9567059 19.8649412,26.0643529 19.6187647,26.0625882 C19.0646471,26.0595 18.5100882,26.0617059 17.9550882,26.0612647" id="Fill-8" fill="#FFFFFF" mask="url(#mask-2)"></path>
                    <path d="M23.6813382,26.0608235 C23.1466324,26.0608235 22.6114853,26.0550882 22.0767794,26.0634706 C21.8023676,26.0674412 21.68325,25.9597941 21.6863382,25.6761176 C21.6956029,24.7549412 21.6960441,23.8337647 21.6858971,22.9130294 C21.6828088,22.632 21.7939853,22.5177353 22.0701618,22.5190588 C23.1497206,22.5234706 24.2288382,22.5221471 25.3083971,22.5199412 C25.5642794,22.5195 25.6891324,22.6227353 25.6873676,22.8927353 C25.68075,23.8240588 25.6820735,24.7549412 25.6886912,25.6858235 C25.6908971,25.9505294 25.5775147,26.0665588 25.3154559,26.0643529 C24.7710441,26.0595 24.22575,26.0625882 23.6813382,26.0625882 L23.6813382,26.0608235 Z" id="Fill-9" fill="#FFFFFF" mask="url(#mask-2)"></path>
                    <path d="M17.9606912,16.1386765 C17.4259853,16.1386765 16.8912794,16.1325 16.3565735,16.1413235 C16.0953971,16.1457353 15.9758382,16.0451471 15.9780441,15.7755882 C15.9842206,14.835 15.9828971,13.8944118 15.9784853,12.9538235 C15.9776029,12.7164706 16.0795147,12.6092647 16.3159853,12.6101471 C17.4251029,12.6123529 18.5342206,12.6123529 19.6428971,12.6105882 C19.8811324,12.6101471 19.9786324,12.7248529 19.97775,12.9591176 C19.9737794,13.9001471 19.9733382,14.8407353 19.9799559,15.7808824 C19.9817206,16.0544118 19.8506912,16.1466176 19.5943676,16.1426471 C19.0499559,16.1347059 18.5051029,16.1404412 17.9606912,16.1404412 L17.9606912,16.1386765 Z" id="Fill-10" fill="#FFFFFF" mask="url(#mask-2)"></path>
                    <path d="M23.6606471,16.1386765 C23.1263824,16.1386765 22.5916765,16.1325 22.0569706,16.1413235 C21.7905,16.1457353 21.6846176,16.0327941 21.6868235,15.7676471 C21.6938824,14.8376471 21.6947647,13.9067647 21.6863824,12.9763235 C21.6841765,12.7054412 21.8006471,12.6070588 22.0609412,12.6083824 C23.1400588,12.6141176 24.2191765,12.6145588 25.2982941,12.6079412 C25.5735882,12.6061765 25.6909412,12.7125 25.6882941,12.9952941 C25.6794706,13.9058824 25.6874118,14.8169118 25.6852059,15.7270588 C25.6843235,16.0782353 25.6221176,16.1373529 25.2643235,16.1391176 C24.7300588,16.1417647 24.1953529,16.14 23.6606471,16.14 L23.6606471,16.1386765 Z" id="Fill-11" fill="#FFFFFF" mask="url(#mask-2)"></path>
                    <path d="M6.53276471,21.0937059 C5.99805882,21.0937059 5.46379412,21.0879706 4.92908824,21.0959118 C4.66394118,21.0998824 4.55585294,20.9860588 4.55761765,20.7213529 C4.56467647,19.7913529 4.56555882,18.8604706 4.56026471,17.9300294 C4.5585,17.6622353 4.67585294,17.5612059 4.93835294,17.5629706 C6.01747059,17.5695882 7.09614706,17.5700294 8.17526471,17.5625294 C8.45629412,17.5607647 8.56482353,17.6767941 8.56261765,17.9538529 C8.55511765,18.8745882 8.55423529,19.7953235 8.56305882,20.7160588 C8.56570588,21.0032647 8.43688235,21.1007647 8.166,21.0963529 C7.62202941,21.0875294 7.07717647,21.0937059 6.53276471,21.0937059" id="Fill-12" fill="#FFFFFF" mask="url(#mask-2)"></path>
                    <path d="M12.2508088,21.0937059 C11.7161029,21.0937059 11.1813971,21.0879706 10.6466912,21.0959118 C10.3877206,21.0998824 10.2668382,21.0032647 10.2694853,20.7306176 C10.2769853,19.7900294 10.2747794,18.8494412 10.27125,17.9088529 C10.2703676,17.6741471 10.3691912,17.5638529 10.6083088,17.5642941 C11.7169853,17.5678235 12.8261029,17.5669412 13.9347794,17.5651765 C14.1536029,17.5647353 14.2678676,17.6644412 14.2678676,17.8863529 C14.2683088,18.8467941 14.2674265,19.8072353 14.2705147,20.7676765 C14.2709559,21.0120882 14.1403676,21.0972353 13.9144853,21.0959118 C13.3599265,21.0923824 12.8053676,21.0950294 12.2508088,21.0950294 L12.2508088,21.0937059 Z" id="Fill-13" fill="#FFFFFF" mask="url(#mask-2)"></path>
                    <path d="M17.95725,21.0937059 C17.4225441,21.0937059 16.8878382,21.0879706 16.3531324,21.0959118 C16.0923971,21.0998824 15.9750441,20.9984118 15.97725,20.7284118 C15.98475,19.7975294 15.9838676,18.8666471 15.9776912,17.9362059 C15.9759265,17.6715 16.0831324,17.5612059 16.3491618,17.5629706 C17.4384265,17.5695882 18.5276912,17.5682647 19.6169559,17.5638529 C19.8653382,17.5629706 19.9787206,17.6662059 19.9778382,17.919 C19.9738676,18.8595882 19.9738676,19.7997353 19.9800441,20.7403235 C19.9813676,20.9944412 19.8666618,21.0994412 19.6209265,21.0976765 C19.0663676,21.0932647 18.5118088,21.0963529 17.95725,21.0963529 L17.95725,21.0937059 Z" id="Fill-14" fill="#FFFFFF" mask="url(#mask-2)"></path>
                    <path d="M23.6929853,21.0937059 C23.1485735,21.0937059 22.6037206,21.0884118 22.0593088,21.0959118 C21.79725,21.0998824 21.6838676,20.9957647 21.6865147,20.7257647 C21.6948971,19.7953235 21.6944559,18.8644412 21.6869559,17.934 C21.68475,17.6666471 21.7950441,17.5612059 22.05975,17.5629706 C23.1388676,17.5695882 24.2179853,17.5700294 25.2975441,17.5625294 C25.5759265,17.5607647 25.68975,17.6701765 25.6875441,17.9507647 C25.6804853,18.8715 25.6800441,19.7922353 25.6893088,20.7129706 C25.6923971,20.9970882 25.5701912,21.1029706 25.2971029,21.099 C24.7623971,21.0906176 24.2276912,21.0963529 23.6929853,21.0963529 L23.6929853,21.0937059 Z" id="Fill-15" fill="#FFFFFF" mask="url(#mask-2)"></path>
                </g>
            </g>
        </g>
    </g>
</svg>