<?xml version="1.0" encoding="UTF-8"?>
<svg width="30px" height="30px" viewBox="0 0 30 30" version="1.1" xmlns="http://www.w3.org/2000/svg" xmlns:xlink="http://www.w3.org/1999/xlink">
    <!-- Generator: Sketch 51.1 (57501) - http://www.bohemiancoding.com/sketch -->
    <title>Group 4</title>
    <desc>Created with Sketch.</desc>
    <defs>
        <polygon id="path-1" points="0 0.336 10.5827324 0.336 10.5827324 10.9179718 0 10.9179718"></polygon>
    </defs>
    <g id="Page-1" stroke="none" stroke-width="1" fill="none" fill-rule="evenodd">
        <g id="RPA-[Create-New-Project]-[Side-Panel]" transform="translate(-24.000000, -283.000000)">
            <g id="Group-38" transform="translate(0.000000, 113.000000)">
                <g id="Group-4" transform="translate(24.000000, 170.000000)">
                    <g id="Group-3" transform="translate(0.000000, 9.375000)">
                        <mask id="mask-2" fill="white">
                            <use xlink:href="#path-1"></use>
                        </mask>
                        <g id="Clip-2"></g>
                        <path d="M10.5827324,5.62698592 C10.5827324,8.54923944 8.21357746,10.9179718 5.29132394,10.9179718 C2.36907042,10.9179718 -8.45070423e-05,8.54923944 -8.45070423e-05,5.62698592 C-8.45070423e-05,2.70473239 2.36907042,0.336 5.29132394,0.336 C8.21357746,0.336 10.5827324,2.70473239 10.5827324,5.62698592" id="Fill-1" fill="#FFFFFF" mask="url(#mask-2)"></path>
                    </g>
                    <path d="M24.0414085,10.5823944 C21.1191549,10.5823944 18.75,8.21323944 18.75,5.29098592 C18.75,2.36873239 21.1191549,0 24.0414085,0 C26.963662,0 29.3328169,2.36873239 29.3328169,5.29098592 C29.3328169,8.21323944 26.963662,10.5823944 24.0414085,10.5823944 Z" id="Fill-4" fill="#FFFFFF"></path>
                    <polygon id="Fill-6" fill="#FFFFFF" points="5.79792254 16.2801761 4.6875 14.0005986 23.7987676 4.6875 24.9087676 6.96707746"></polygon>
                    <path d="M29.3323944,24.0414085 C29.3323944,21.1191549 26.963662,18.75 24.0414085,18.75 C21.1187324,18.75 18.75,21.1191549 18.75,24.0414085 C18.75,26.963662 21.1187324,29.3323944 24.0414085,29.3323944 C26.963662,29.3323944 29.3323944,26.963662 29.3323944,24.0414085" id="Fill-8" fill="#FFFFFF"></path>
                    <polygon id="Fill-10" fill="#FFFFFF" points="23.7983451 25.0484155 4.6875 16.2227644 5.7975 14.0625 24.9087676 22.8881511"></polygon>
                </g>
            </g>
        </g>
    </g>
</svg>