<?xml version="1.0" encoding="UTF-8"?>
<svg width="203px" height="40px" viewBox="0 0 203 40" version="1.1" xmlns="http://www.w3.org/2000/svg" xmlns:xlink="http://www.w3.org/1999/xlink">
    <!-- Generator: Sketch 51.1 (57501) - http://www.bohemiancoding.com/sketch -->
    <title>Group 58</title>
    <desc>Created with Sketch.</desc>
    <defs>
        <polygon id="path-1" points="0.276392157 0.264901961 8.76431373 0.264901961 8.76431373 10.4162745 0.276392157 10.4162745"></polygon>
        <polygon id="path-3" points="0 0.016 33.2168235 0.016 33.2168235 31.1701176 0 31.1701176"></polygon>
        <polygon id="path-5" points="0.254352941 0.194196078 13.3112157 0.194196078 13.3112157 18.4313725 0.254352941 18.4313725"></polygon>
        <polygon id="path-7" points="0 39.6454902 202.097647 39.6454902 202.097647 0 0 0"></polygon>
    </defs>
    <g id="Wireframe" stroke="none" stroke-width="1" fill="none" fill-rule="evenodd">
        <g id="User-Platform-[Expand]" transform="translate(-120.000000, -23.000000)">
            <g id="Group-58" transform="translate(120.000000, 23.000000)">
                <path d="M113.242078,21.8537647 L112.171098,19.5274902 L112.156196,19.5274902 L111.099333,21.8537647 L113.242078,21.8537647 Z M107.447569,24.8706275 L111.86051,15.382 C111.902471,15.2972941 112.001686,15.2274902 112.10051,15.2274902 L112.240902,15.2274902 C112.339725,15.2274902 112.438549,15.2972941 112.48051,15.382 L116.893843,24.8706275 C116.978549,25.0541569 116.865216,25.2376863 116.654235,25.2376863 L115.089137,25.2376863 C114.835804,25.2376863 114.722471,25.1529804 114.595804,24.8847451 L114.087961,23.7714118 L110.253059,23.7714118 L109.746,24.8992549 C109.674627,25.0682745 109.52051,25.2376863 109.238157,25.2376863 L107.687569,25.2376863 C107.475412,25.2376863 107.363255,25.0541569 107.447569,24.8706275 Z" id="Fill-1" fill="#FEFEFE"></path>
                <path d="M118.400235,15.6359216 C118.400235,15.4947451 118.526902,15.3680784 118.668078,15.3680784 L120.359059,15.3680784 C120.500627,15.3680784 120.627686,15.4947451 120.627686,15.6359216 L120.627686,24.9696471 C120.627686,25.1104314 120.500627,25.2374902 120.359059,25.2374902 L118.668078,25.2374902 C118.526902,25.2374902 118.400235,25.1104314 118.400235,24.9696471 L118.400235,15.6359216 Z" id="Fill-3" fill="#FEFEFE"></path>
                <path d="M130.408902,19.5977255 C131.015569,19.5977255 131.523412,19.1181176 131.523412,18.484 C131.523412,17.891451 131.015569,17.4404706 130.408902,17.4404706 L129.070078,17.4404706 L129.070078,19.5977255 L130.408902,19.5977255 Z M126.870863,15.6357647 C126.870863,15.4945882 126.983412,15.3683137 127.138314,15.3683137 L130.535961,15.3683137 C132.270471,15.3683137 133.694392,16.7781176 133.694392,18.484 C133.694392,20.2322353 132.270471,21.656549 130.550471,21.656549 L129.070078,21.656549 L129.070078,24.9694902 C129.070078,25.1106667 128.943412,25.2377255 128.802235,25.2377255 L127.138314,25.2377255 C126.983412,25.2377255 126.870863,25.1106667 126.870863,24.9694902 L126.870863,15.6357647 Z" id="Fill-5" fill="#FEFEFE"></path>
                <path d="M139.782745,19.5835294 C140.361176,19.5835294 140.854118,19.0482353 140.854118,18.4556863 C140.854118,17.8635294 140.361176,17.3847059 139.782745,17.3847059 L137.696078,17.3847059 L137.696078,19.5835294 L139.782745,19.5835294 Z M135.482745,15.6360784 C135.482745,15.4945098 135.595294,15.3682353 135.750588,15.3682353 L139.966275,15.3682353 C141.657647,15.3682353 143.039608,16.7352941 143.039608,18.4133333 C143.039608,19.7105882 142.179216,20.7537255 140.952549,21.2470588 L142.884314,24.8286275 C142.983137,25.0121569 142.884314,25.2376471 142.645098,25.2376471 L140.770196,25.2376471 C140.656863,25.2376471 140.572941,25.1670588 140.544314,25.1105882 L138.668627,21.3741176 L137.696078,21.3741176 L137.696078,24.9694118 C137.696078,25.1105882 137.568627,25.2376471 137.428235,25.2376471 L135.750588,25.2376471 C135.595294,25.2376471 135.482745,25.1105882 135.482745,24.9694118 L135.482745,15.6360784 Z" id="Fill-7" fill="#FEFEFE"></path>
                <path d="M149.620745,23.122902 C151.171333,23.122902 152.440745,21.8538824 152.440745,20.3170196 C152.440745,18.7660392 151.171333,17.482902 149.620745,17.482902 C148.084275,17.482902 146.815255,18.7660392 146.815255,20.3170196 C146.815255,21.8538824 148.084275,23.122902 149.620745,23.122902 M149.620745,15.2272157 C152.440745,15.2272157 154.696824,17.4970196 154.696824,20.3170196 C154.696824,23.1366275 152.440745,25.3785882 149.620745,25.3785882 C146.801529,25.3785882 144.559176,23.1366275 144.559176,20.3170196 C144.559176,17.4970196 146.801529,15.2272157 149.620745,15.2272157" id="Fill-9" fill="#FEFEFE"></path>
                <path d="M161.122,15.2272941 C162.532196,15.2272941 163.574941,15.6641569 164.533765,16.5382745 C164.660824,16.6512157 164.660824,16.8202353 164.548275,16.9331765 L163.448275,18.0755294 C163.349451,18.1739608 163.194941,18.1739608 163.096118,18.0755294 C162.574157,17.6100392 161.883569,17.3563137 161.192196,17.3563137 C159.599255,17.3563137 158.429451,18.6814118 158.429451,20.2602353 C158.429451,21.8253333 159.61298,23.1229804 161.206706,23.1229804 C161.869059,23.1229804 162.588667,22.8829804 163.096118,22.4457255 C163.194941,22.3614118 163.377686,22.3614118 163.462784,22.4598431 L164.562,23.6300392 C164.660824,23.7288627 164.647098,23.912 164.548275,24.0108235 C163.589451,24.9414118 162.37651,25.3786667 161.122,25.3786667 C158.302784,25.3786667 156.032196,23.1367059 156.032196,20.317098 C156.032196,17.497098 158.302784,15.2272941 161.122,15.2272941" id="Fill-11" fill="#FEFEFE"></path>
                <path d="M166.590353,15.6359216 C166.590353,15.4947451 166.70251,15.3680784 166.858196,15.3680784 L172.694667,15.3680784 C172.850353,15.3680784 172.96251,15.4947451 172.96251,15.6359216 L172.96251,17.1727843 C172.96251,17.3135686 172.850353,17.4406275 172.694667,17.4406275 L168.789569,17.4406275 L168.789569,19.1892549 L172.004471,19.1892549 C172.145255,19.1892549 172.271922,19.3155294 172.271922,19.4567059 L172.271922,20.9935686 C172.271922,21.1488627 172.145255,21.2614118 172.004471,21.2614118 L168.789569,21.2614118 L168.789569,23.164549 L172.694667,23.164549 C172.850353,23.164549 172.96251,23.2916078 172.96251,23.4327843 L172.96251,24.9696471 C172.96251,25.1104314 172.850353,25.2374902 172.694667,25.2374902 L166.858196,25.2374902 C166.70251,25.2374902 166.590353,25.1104314 166.590353,24.9696471 L166.590353,15.6359216 Z" id="Fill-13" fill="#FEFEFE"></path>
                <path d="M174.638,23.8980392 L175.300745,22.7278431 C175.413686,22.5447059 175.681922,22.5729412 175.780353,22.6435294 C175.836431,22.6713725 176.852118,23.4184314 177.782706,23.4184314 C178.346235,23.4184314 178.755255,23.0662745 178.755255,22.5729412 C178.755255,21.9803922 178.261922,21.5294118 177.303098,21.1486275 C176.090157,20.6694118 174.567412,19.7247059 174.567412,18.0329412 C174.567412,16.6368627 175.653686,15.227451 177.824667,15.227451 C179.291333,15.227451 180.418392,15.9741176 180.841922,16.2843137 C181.010941,16.3831373 180.983098,16.6368627 180.926235,16.7352941 L180.207412,17.8215686 C180.108588,17.9760784 179.854863,18.1035294 179.727804,18.0047059 C179.600745,17.9341176 178.571725,17.1584314 177.711333,17.1584314 C177.204275,17.1584314 176.82349,17.4972549 176.82349,17.8772549 C176.82349,18.3996078 177.246235,18.7941176 178.360745,19.2454902 C179.460353,19.6823529 181.208588,20.5423529 181.208588,22.46 C181.208588,23.9121569 179.953686,25.3784314 177.881529,25.3784314 C176.048196,25.3784314 175.03251,24.6172549 174.708588,24.2929412 C174.567412,24.1517647 174.525843,24.0952941 174.638,23.8980392" id="Fill-15" fill="#FEFEFE"></path>
                <path d="M182.713961,23.8980392 L183.377098,22.7278431 C183.489647,22.5447059 183.757098,22.5729412 183.856706,22.6435294 C183.912392,22.6713725 184.928078,23.4184314 185.858667,23.4184314 C186.422196,23.4184314 186.831216,23.0662745 186.831216,22.5729412 C186.831216,21.9803922 186.337882,21.5294118 185.379059,21.1486275 C184.166118,20.6694118 182.643765,19.7247059 182.643765,18.0329412 C182.643765,16.6368627 183.729647,15.227451 185.900627,15.227451 C187.36651,15.227451 188.495137,15.9741176 188.917882,16.2843137 C189.087294,16.3831373 189.059059,16.6368627 189.002196,16.7352941 L188.283373,17.8215686 C188.184549,17.9760784 187.930824,18.1035294 187.803765,18.0047059 C187.676706,17.9341176 186.647686,17.1584314 185.788078,17.1584314 C185.280627,17.1584314 184.899451,17.4972549 184.899451,17.8772549 C184.899451,18.3996078 185.322196,18.7941176 186.436706,19.2454902 C187.536314,19.6823529 189.284549,20.5423529 189.284549,22.46 C189.284549,23.9121569 188.029647,25.3784314 185.95749,25.3784314 C184.124157,25.3784314 183.108863,24.6172549 182.784549,24.2929412 C182.643765,24.1517647 182.601804,24.0952941 182.713961,23.8980392" id="Fill-17" fill="#FEFEFE"></path>
                <path d="M113.242078,35.9488235 L112.171098,33.622549 L112.156196,33.622549 L111.099333,35.9488235 L113.242078,35.9488235 Z M107.447569,38.9656863 L111.86051,29.4770588 C111.902471,29.3923529 112.001686,29.322549 112.10051,29.322549 L112.240902,29.322549 C112.339725,29.322549 112.438549,29.3923529 112.48051,29.4770588 L116.893843,38.9656863 C116.978549,39.1492157 116.865216,39.3327451 116.654235,39.3327451 L115.089137,39.3327451 C114.835804,39.3327451 114.722471,39.2480392 114.595804,38.9798039 L114.087961,37.8664706 L110.253059,37.8664706 L109.746,38.9943137 C109.674627,39.1633333 109.52051,39.3327451 109.238157,39.3327451 L107.687569,39.3327451 C107.475412,39.3327451 107.363255,39.1492157 107.447569,38.9656863 Z" id="Fill-19" fill="#FEFEFE"></path>
                <path d="M118.088902,29.7309804 C118.088902,29.5898039 118.215569,29.4631373 118.357529,29.4631373 L120.090863,29.4631373 C120.246157,29.4631373 120.359098,29.5898039 120.359098,29.7309804 L120.359098,35.4411765 C120.359098,36.4282353 121.091647,37.2176471 122.092824,37.2176471 C123.10851,37.2176471 123.855569,36.4282353 123.855569,35.4411765 L123.855569,29.7309804 C123.855569,29.5898039 123.96851,29.4631373 124.124196,29.4631373 L125.857529,29.4631373 C125.999098,29.4631373 126.125765,29.5898039 126.125765,29.7309804 L126.125765,35.5541176 C126.125765,37.6964706 124.321451,39.4737255 122.092824,39.4737255 C119.87949,39.4737255 118.088902,37.6964706 118.088902,35.5541176 L118.088902,29.7309804 Z" id="Fill-21" fill="#FEFEFE"></path>
                <path d="M130.014431,31.5355294 L127.997569,31.5355294 C127.843451,31.5355294 127.73051,31.4088627 127.73051,31.2676863 L127.73051,29.7308235 C127.73051,29.5896471 127.843451,29.4633725 127.997569,29.4633725 L134.258353,29.4633725 C134.414039,29.4633725 134.526196,29.5896471 134.526196,29.7308235 L134.526196,31.2676863 C134.526196,31.4088627 134.414039,31.5355294 134.258353,31.5355294 L132.242275,31.5355294 L132.242275,39.064549 C132.242275,39.2057255 132.114824,39.3327843 131.974431,39.3327843 L130.282275,39.3327843 C130.14149,39.3327843 130.014431,39.2057255 130.014431,39.064549 L130.014431,31.5355294 Z" id="Fill-23" fill="#FEFEFE"></path>
                <path d="M140.572039,37.2175686 C142.123412,37.2175686 143.392039,35.9489412 143.392039,34.4120784 C143.392039,32.861098 142.123412,31.5779608 140.572039,31.5779608 C139.035569,31.5779608 137.766549,32.861098 137.766549,34.4120784 C137.766549,35.9489412 139.035569,37.2175686 140.572039,37.2175686 M140.572039,29.3222745 C143.392039,29.3222745 145.648118,31.5920784 145.648118,34.4120784 C145.648118,37.2316863 143.392039,39.4736471 140.572039,39.4736471 C137.752824,39.4736471 135.510471,37.2316863 135.510471,34.4120784 C135.510471,31.5920784 137.752824,29.3222745 140.572039,29.3222745" id="Fill-25" fill="#FEFEFE"></path>
                <path d="M148.675608,29.5479216 C148.689333,29.4208627 148.816,29.3224314 148.929333,29.3224314 L149.155216,29.3224314 C149.225412,29.3224314 149.352471,29.3781176 149.394431,29.4632157 L152.665804,35.5538039 L152.693255,35.5538039 L155.964627,29.4632157 C156.006588,29.3781176 156.134039,29.3224314 156.203843,29.3224314 L156.429333,29.3224314 C156.543059,29.3224314 156.669725,29.4208627 156.683451,29.5479216 L158.277176,39.0224314 C158.305804,39.2055686 158.178353,39.3326275 158.008941,39.3326275 L156.345804,39.3326275 C156.218353,39.3326275 156.091686,39.2196863 156.077961,39.1071373 L155.443451,34.7506667 L155.415216,34.7506667 L153.046196,39.3185098 C153.003843,39.4028235 152.876784,39.4738039 152.806588,39.4738039 L152.552863,39.4738039 C152.468549,39.4738039 152.355216,39.4028235 152.313255,39.3185098 L149.93051,34.7506667 L149.902275,34.7506667 L149.281882,39.1071373 C149.267373,39.2196863 149.155216,39.3326275 149.013255,39.3326275 L147.350118,39.3326275 C147.180314,39.3326275 147.054431,39.2055686 147.082275,39.0224314 L148.675608,29.5479216 Z" id="Fill-27" fill="#FEFEFE"></path>
                <path d="M164.956235,35.9488235 L163.884863,33.622549 L163.869961,33.622549 L162.81349,35.9488235 L164.956235,35.9488235 Z M159.161333,38.9656863 L163.574275,29.4770588 C163.616235,29.3923529 163.715843,29.322549 163.814275,29.322549 L163.955059,29.322549 C164.05349,29.322549 164.152314,29.3923529 164.194667,29.4770588 L168.607608,38.9656863 C168.692314,39.1492157 168.57898,39.3327451 168.368,39.3327451 L166.802902,39.3327451 C166.549569,39.3327451 166.436235,39.2480392 166.309569,38.9798039 L165.801725,37.8664706 L161.966824,37.8664706 L161.459765,38.9943137 C161.388784,39.1633333 161.234275,39.3327451 160.951922,39.3327451 L159.401333,39.3327451 C159.189569,39.3327451 159.07702,39.1492157 159.161333,38.9656863 Z" id="Fill-29" fill="#FEFEFE"></path>
                <path d="M170.87498,31.5355294 L168.858118,31.5355294 C168.704,31.5355294 168.590667,31.4088627 168.590667,31.2676863 L168.590667,29.7308235 C168.590667,29.5896471 168.704,29.4633725 168.858118,29.4633725 L175.118902,29.4633725 C175.273412,29.4633725 175.386745,29.5896471 175.386745,29.7308235 L175.386745,31.2676863 C175.386745,31.4088627 175.273412,31.5355294 175.118902,31.5355294 L173.102824,31.5355294 L173.102824,39.064549 C173.102824,39.2057255 172.975373,39.3327843 172.83498,39.3327843 L171.142824,39.3327843 C171.001647,39.3327843 170.87498,39.2057255 170.87498,39.064549 L170.87498,31.5355294 Z" id="Fill-31" fill="#FEFEFE"></path>
                <path d="M177.147176,29.7309804 C177.147176,29.5898039 177.273843,29.4631373 177.414627,29.4631373 L179.106,29.4631373 C179.247569,29.4631373 179.374627,29.5898039 179.374627,29.7309804 L179.374627,39.0647059 C179.374627,39.2054902 179.247569,39.332549 179.106,39.332549 L177.414627,39.332549 C177.273843,39.332549 177.147176,39.2054902 177.147176,39.0647059 L177.147176,29.7309804 Z" id="Fill-33" fill="#FEFEFE"></path>
                <path d="M186.492314,37.2175686 C188.044078,37.2175686 189.312706,35.9489412 189.312706,34.4120784 C189.312706,32.861098 188.044078,31.5779608 186.492314,31.5779608 C184.956235,31.5779608 183.686824,32.861098 183.686824,34.4120784 C183.686824,35.9489412 184.956235,37.2175686 186.492314,37.2175686 M186.492314,29.3222745 C189.312706,29.3222745 191.568392,31.5920784 191.568392,34.4120784 C191.568392,37.2316863 189.312706,39.4736471 186.492314,39.4736471 C183.673098,39.4736471 181.431137,37.2316863 181.431137,34.4120784 C181.431137,31.5920784 183.673098,29.3222745 186.492314,29.3222745" id="Fill-35" fill="#FEFEFE"></path>
                <g id="Group-39" transform="translate(193.333333, 29.057255)">
                    <mask id="mask-2" fill="white">
                        <use xlink:href="#path-1"></use>
                    </mask>
                    <g id="Clip-38"></g>
                    <path d="M0.276392157,0.518235294 C0.276392157,0.377843137 0.403058824,0.264901961 0.544235294,0.264901961 L0.896392157,0.264901961 L6.52227451,5.67901961 L6.536,5.67901961 L6.536,0.673529412 C6.536,0.532352941 6.64933333,0.406078431 6.80423529,0.406078431 L8.496,0.406078431 C8.63756863,0.406078431 8.76462745,0.532352941 8.76462745,0.673529412 L8.76462745,10.162549 C8.76462745,10.3033333 8.63756863,10.4162745 8.496,10.4162745 L8.2705098,10.4162745 C8.22815686,10.4162745 8.11521569,10.3739216 8.08776471,10.3456863 L2.51835294,4.74843137 L2.50384314,4.74843137 L2.50384314,10.0072549 C2.50384314,10.1484314 2.39168627,10.2754902 2.236,10.2754902 L0.558352941,10.2754902 C0.417568627,10.2754902 0.290901961,10.1484314 0.290901961,10.0072549 L0.276392157,0.518235294 Z" id="Fill-37" fill="#FEFEFE" mask="url(#mask-2)"></path>
                </g>
                <g id="Group-42" transform="translate(0.000000, 6.312157)">
                    <mask id="mask-4" fill="white">
                        <use xlink:href="#path-3"></use>
                    </mask>
                    <g id="Clip-41"></g>
                    <path d="M19.5399608,14.7140392 C19.530549,14.6889412 19.523098,14.6622745 19.5132941,14.6371765 L31.1309412,2.12541176 L28.8336863,0.016 L17.5960392,12.2018824 C16.7070196,11.5716863 15.6242745,11.1975686 14.4513333,11.1975686 C11.4419216,11.1975686 9.00152941,13.6375686 9.00152941,16.6473725 C9.00152941,17.9540392 9.46270588,19.1528627 10.2297647,20.0916863 L-3.92156863e-05,31.1701176 L4.238,31.1701176 L12.8458431,21.856 C13.3532941,22.0120784 13.8925098,22.0967843 14.4513333,22.0967843 C17.045451,22.0967843 19.2117255,20.2826667 19.7619216,17.8552157 L33.2168235,17.8552157 L33.2168235,14.7140392 L19.5399608,14.7140392 Z M16.8066275,16.6250196 C16.8066275,17.9258039 15.7521176,18.9803137 14.4513333,18.9803137 C13.150549,18.9803137 12.0964314,17.9258039 12.0964314,16.6250196 C12.0964314,15.3246275 13.150549,14.2697255 14.4513333,14.2697255 C15.7521176,14.2697255 16.8066275,15.3246275 16.8066275,16.6250196 Z" id="Fill-40" fill="#A21318" mask="url(#mask-4)"></path>
                </g>
                <path d="M39.2638431,5.44941176 C39.2638431,2.44 36.8238431,0 33.8144314,0 C30.8046275,0 28.3646275,2.44 28.3646275,5.44941176 C28.3646275,7.95176471 30.0532549,10.0545098 32.3512941,10.6945098 L32.3512941,30.1905882 L35.3505098,30.1905882 L35.3505098,10.6760784 C37.6112941,10.0121569 39.2638431,7.92509804 39.2638431,5.44941176 M36.1693333,5.42745098 C36.1693333,6.72823529 35.1152157,7.7827451 33.8144314,7.7827451 C32.5136471,7.7827451 31.4591373,6.72823529 31.4591373,5.42745098 C31.4591373,4.12666667 32.5136471,3.07215686 33.8144314,3.07215686 C35.1152157,3.07215686 36.1693333,4.12666667 36.1693333,5.42745098" id="Fill-43" fill="#FEFEFE"></path>
                <path d="M39.2638431,34.0240392 C39.2638431,31.0142353 36.8238431,28.5746275 33.8144314,28.5746275 C30.8046275,28.5746275 28.3646275,31.0142353 28.3646275,34.0240392 C28.3646275,37.0338431 30.8046275,39.473451 33.8144314,39.473451 C36.8238431,39.473451 39.2638431,37.0338431 39.2638431,34.0240392 M36.1693333,34.0016863 C36.1693333,35.3028627 35.1152157,36.3569804 33.8144314,36.3569804 C32.5136471,36.3569804 31.4591373,35.3028627 31.4591373,34.0016863 C31.4591373,32.7012941 32.5136471,31.6467843 33.8144314,31.6467843 C35.1152157,31.6467843 36.1693333,32.7012941 36.1693333,34.0016863" id="Fill-45" fill="#A21318"></path>
                <path d="M87.9475686,13.065098 L87.9475686,13.7384314 L89.8514902,13.7384314 L89.8514902,18.7160784 L90.6248235,18.7160784 L90.6248235,13.7384314 L92.5295294,13.7384314 L92.5295294,13.065098 L87.9475686,13.065098 Z M93.2142353,18.7160784 L93.9448235,18.7160784 L93.9448235,15.3807843 C93.9448235,15.247451 93.9412941,15.0392157 93.9338431,14.7560784 C93.9256078,14.4721569 93.9216863,14.2615686 93.9216863,14.1227451 L93.9216863,13.9498039 L95.551098,18.7160784 L96.3091373,18.7160784 L97.9228627,13.9498039 C97.9228627,14.254902 97.9205098,14.5411765 97.9150196,14.807451 C97.9099216,15.0745098 97.9071765,15.2654902 97.9071765,15.3807843 L97.9071765,18.7160784 L98.638549,18.7160784 L98.638549,13.065098 L97.5491373,13.065098 L95.9358039,17.8431373 L94.311098,13.065098 L93.2142353,13.065098 L93.2142353,18.7160784 Z" id="Fill-47" fill="#FEFEFE"></path>
                <g id="Group-51" transform="translate(63.529412, 21.214118)">
                    <mask id="mask-6" fill="white">
                        <use xlink:href="#path-5"></use>
                    </mask>
                    <g id="Clip-50"></g>
                    <path d="M9.41356863,18.431451 L11.5280784,18.431451 C11.4535686,18.0385098 11.4108235,17.6345882 11.4108235,17.2200784 C11.4108235,16.5592941 11.5143529,15.9236078 11.6982745,15.3232157 L9.61827451,15.3232157 C6.26494118,15.3232157 3.40298039,12.7879216 3.40298039,9.47615686 C3.40298039,5.95929412 6.26494118,3.22007843 9.61827451,3.22007843 L13.3112157,3.22007843 L13.3112157,0.194196078 L9.37278431,0.194196078 C4.38454902,0.194196078 0.254352941,4.32360784 0.254352941,9.39458824 C0.254352941,14.3420392 4.38454902,18.431451 9.41356863,18.431451" id="Fill-49" fill="#A21318" mask="url(#mask-6)"></path>
                </g>
                <mask id="mask-8" fill="white">
                    <use xlink:href="#path-7"></use>
                </mask>
                <g id="Clip-53"></g>
                <polygon id="Fill-52" fill="#A21318" mask="url(#mask-8)" points="77.8584314 39.6458824 81.4301961 39.6458824 81.4301961 25.9811765 77.8584314 25.9811765"></polygon>
                <path d="M51.7500392,16.1601961 L49.6359216,16.1601961 C49.7100392,16.5527451 49.7527843,16.9566667 49.7527843,17.3711765 C49.7527843,18.0319608 49.6492549,18.6676471 49.4653333,19.2680392 L51.5457255,19.2680392 C54.8986667,19.2680392 57.7606275,21.8033333 57.7606275,25.115098 C57.7606275,28.6319608 54.8986667,31.3711765 51.5457255,31.3711765 L45.0488627,31.3711765 L45.0488627,34.3970588 L51.7908235,34.3970588 C56.779451,34.3970588 60.9092549,30.2676471 60.9092549,25.1970588 C60.9092549,20.2492157 56.779451,16.1601961 51.7500392,16.1601961" id="Fill-54" fill="#A21318" mask="url(#mask-8)"></path>
                <polygon id="Fill-55" fill="#A21318" mask="url(#mask-8)" points="45.0490196 39.6454902 48.6207843 39.6454902 48.6207843 25.4180392 45.0490196 25.4180392"></polygon>
                <path d="M46.8350588,19.7210196 C45.7256471,19.7210196 44.8264314,18.8214118 44.8264314,17.7123922 C44.8264314,16.6029804 45.7256471,15.7037647 46.8350588,15.7037647 C47.9440784,15.7037647 48.8432941,16.6029804 48.8432941,17.7123922 C48.8432941,18.8214118 47.9440784,19.7210196 46.8350588,19.7210196 M46.8350588,13.0649412 C44.268,13.0649412 42.1872157,15.1457255 42.1872157,17.7123922 C42.1872157,20.2790588 44.268,22.3598431 46.8350588,22.3598431 C49.4017255,22.3598431 51.4825098,20.2790588 51.4825098,17.7123922 C51.4825098,15.1457255 49.4017255,13.0649412 46.8350588,13.0649412" id="Fill-56" fill="#A21318" mask="url(#mask-8)"></path>
                <path d="M79.6445098,25.0116863 C78.535098,25.0116863 77.6358824,24.1124706 77.6358824,23.003451 C77.6358824,21.8940392 78.535098,20.9948235 79.6445098,20.9948235 C80.7535294,20.9948235 81.6527451,21.8940392 81.6527451,23.003451 C81.6527451,24.1124706 80.7535294,25.0116863 79.6445098,25.0116863 M79.6445098,18.3556078 C77.077451,18.3556078 74.9966667,20.4367843 74.9966667,23.003451 C74.9966667,25.5701176 77.077451,27.6505098 79.6445098,27.6505098 C82.2111765,27.6505098 84.2919608,25.5701176 84.2919608,23.003451 C84.2919608,20.4367843 82.2111765,18.3556078 79.6445098,18.3556078" id="Fill-57" fill="#A21318" mask="url(#mask-8)"></path>
            </g>
        </g>
    </g>
</svg>