<?xml version="1.0" encoding="utf-8"?>
<!-- Generator: Adobe Illustrator 22.0.1, SVG Export Plug-In . SVG Version: 6.00 Build 0)  -->
<svg version="1.1" id="Layer_1" 
	xmlns="http://www.w3.org/2000/svg" 
	xmlns:xlink="http://www.w3.org/1999/xlink" x="0px" y="0px" viewBox="0 0 300 300" style="enable-background:new 0 0 300 300;" xml:space="preserve">
	<style type="text/css">
	.st0{fill:#FFFFFF;}
	.st1{fill:#231F20;}
	.st2{fill:none;stroke:#231F20;stroke-width:18.896;}
	</style>
	<g>
		<g>
			<path class="st0" d="M277.8,247.5h6.4v-29.1h-6.4V247.5z M254.8,235.9h-7.1l3.5-9.1L254.8,235.9z M236.1,247.5h7.1l2.4-6.2H257
			l2.5,6.2h7.2L254,218.4h-5.3L236.1,247.5z M205.7,221.2c-1.2-1.3-2.4-2.2-3.7-2.8c-1.3-0.5-2.8-0.8-4.5-0.8
			c-1.2,0-2.3,0.2-3.5,0.5c-1.1,0.3-2.1,0.8-3,1.5c-0.9,0.7-1.6,1.6-2.1,2.6c-0.5,1-0.8,2.3-0.8,3.7c0,1.3,0.2,2.5,0.6,3.4
			c0.4,0.9,1,1.6,1.7,2.2c0.7,0.6,1.5,1.1,2.4,1.5c0.9,0.4,1.8,0.7,2.8,1c0.9,0.3,1.9,0.6,2.8,0.9c0.9,0.3,1.7,0.7,2.4,1.1
			c0.7,0.5,1.3,1,1.7,1.7c0.4,0.7,0.6,1.5,0.6,2.5c0,0.9-0.2,1.6-0.6,2.3c-0.4,0.7-0.9,1.2-1.5,1.7c-0.6,0.5-1.3,0.8-2,1
			c-0.7,0.2-1.5,0.3-2.2,0.3c-1.5,0-2.9-0.3-4-1c-1.1-0.6-2-1.5-2.6-2.6l-2.7,1.9c1.1,1.5,2.5,2.6,4.1,3.3c1.6,0.7,3.3,1,5.1,1
			c1.2,0,2.3-0.2,3.4-0.6c1.1-0.4,2.2-0.9,3.1-1.6c0.9-0.7,1.7-1.6,2.2-2.7c0.6-1.1,0.8-2.2,0.8-3.6c0-1.8-0.4-3.1-1.1-4.2
			c-0.7-1-1.7-1.8-2.8-2.4c-1.1-0.6-2.3-1.1-3.6-1.5c-1.3-0.4-2.5-0.8-3.6-1.3c-1.1-0.5-2-1.1-2.8-1.8c-0.7-0.7-1.1-1.7-1.1-3.1
			c0-0.9,0.2-1.7,0.5-2.4c0.4-0.7,0.8-1.2,1.4-1.6c0.6-0.4,1.3-0.7,2-0.9c0.7-0.2,1.5-0.3,2.3-0.3c2.5,0,4.3,0.9,5.6,2.8
			L205.7,221.2z M173.2,218.4h-3v29.1h3V218.4z M140.5,234h4.9l8,13.5h3.6l-8.4-13.8c2.4-0.2,4.3-1,5.5-2.4c1.3-1.4,1.9-3.1,1.9-5.1
			c0-2.6-0.9-4.6-2.6-5.8c-1.7-1.3-4.1-1.9-7-1.9h-9v29.1h3V234z M140.5,221.1h5.3c1.3,0,2.4,0.1,3.4,0.4c0.9,0.3,1.7,0.6,2.2,1.1
			c0.5,0.5,0.9,1,1.2,1.6c0.2,0.6,0.4,1.3,0.4,2c0,0.7-0.1,1.4-0.4,2c-0.2,0.6-0.6,1.2-1.2,1.6c-0.5,0.5-1.3,0.8-2.2,1.1
			c-0.9,0.3-2,0.4-3.4,0.4h-5.3V221.1z M103.8,239.9h14.9l3.2,7.7h3.5l-12.7-29.1h-2.9l-12.7,29.1h3.5L103.8,239.9z M111.3,221.8
			l6.3,15.3h-12.6L111.3,221.8z M60.8,218.4h-4.5v29.1h3v-25.2h0.1l10.5,25.2h1.6l10.5-25.2H82v25.2h3v-29.1h-4.5l-9.8,23.7
			L60.8,218.4z M22.5,239.9h14.9l3.2,7.7H44l-12.7-29.1h-2.9l-12.7,29.1h3.5L22.5,239.9z M29.9,221.8l6.3,15.3H23.6L29.9,221.8z"/>
			<path class="st0" d="M222.7,239.4c3.1,0,5.7-2.5,5.7-5.7c0-3.1-2.5-5.7-5.7-5.7c-3.1,0-5.7,2.5-5.7,5.7
			C217,236.8,219.6,239.4,222.7,239.4"/>
		</g>
		<g>
			<path class="st0" d="M140.4,135.8c0,4.8-3.9,8.6-8.6,8.6c-4.8,0-8.6-3.9-8.6-8.6c0-4.8,3.9-8.6,8.6-8.6
			C136.5,127.2,140.4,131.1,140.4,135.8 M150.4,128.8c0-0.1-0.1-0.2-0.1-0.3l42.6-45.9l-8.4-7.7l-41.2,44.7
			c-3.3-2.3-7.2-3.7-11.5-3.7c-11,0-20,8.9-20,20c0,4.8,1.7,9.2,4.5,12.6l-37.5,40.6h15.5l31.6-34.2c1.9,0.6,3.8,0.9,5.9,0.9
			c9.5,0,17.5-6.7,19.5-15.6h49.3v-11.5H150.4z"/>
			<path class="st0" d="M211.4,71.6c0,4.8-3.9,8.6-8.6,8.6c-4.8,0-8.6-3.9-8.6-8.6c0-4.8,3.9-8.6,8.6-8.6
			C207.5,63,211.4,66.9,211.4,71.6 M222.7,71.7c0-11-8.9-20-20-20c-11,0-20,8.9-20,20c0,9.2,6.2,16.9,14.6,19.2v71.5h11V90.9
			C216.6,88.4,222.7,80.8,222.7,71.7"/>
			<path class="st1" d="M188.7,78.8"/>
			<path class="st2" d="M188.7,78.8"/>
			<path class="st0" d="M211.4,176.4c0,4.8-3.9,8.6-8.6,8.6c-4.8,0-8.6-3.9-8.6-8.6c0-4.8,3.9-8.6,8.6-8.6
			C207.5,167.8,211.4,171.7,211.4,176.4 M222.7,176.5c0-11-8.9-20-20-20c-11,0-20,8.9-20,20c0,11,8.9,20,20,20
			C213.8,196.5,222.7,187.5,222.7,176.5"/>
		</g>
	</g>
</svg>